<?xml version="1.0" encoding="utf-8"?>
<!-- Generator: Adobe Illustrator 23.0.5, SVG Export Plug-In . SVG Version: 6.00 Build 0)  -->
<svg version="1.1" id="Layer_1" xmlns="http://www.w3.org/2000/svg" xmlns:xlink="http://www.w3.org/1999/xlink" x="0px" y="0px"
	 viewBox="0 0 32 32" style="enable-background:new 0 0 32 32;" xml:space="preserve">
<style type="text/css">
	.st0{fill:#F6F6F6;}
	.st1{fill:#0F325A;}
	.st2{fill:#F5F5F5;}
	.st3{fill:#FAF6EA;}
	.st4{fill:#102F67;}
	.st5{fill:#FFFFFF;}
	.st6{fill:#D9B440;}
	.st7{fill:#CC0001;}
</style>
<g>
	<g>
		<g>
			<path class="st0" d="M0,16.03C-0.01,7.17,7.14,0.01,16.01,0C24.8-0.01,31.99,7.16,32,15.95C32.01,24.8,24.86,31.99,16.04,32
				C7.19,32.01,0.01,24.86,0,16.03z"/>
		</g>
	</g>
	<g>
		<g>
			<path class="st1" d="M31.6,16.01c-0.01,8.61-7.01,15.61-15.6,15.58c-8.65-0.03-15.61-7-15.59-15.63
				c0.02-8.62,7-15.58,15.62-15.56C24.64,0.42,31.61,7.4,31.6,16.01z"/>
		</g>
	</g>
	<g>
		<g>
			<path class="st2" d="M5.24,16.11C5.18,10.15,9.95,5.29,15.91,5.24c5.92-0.05,10.81,4.73,10.85,10.62
				c0.05,6.02-4.7,10.86-10.71,10.91C10.15,26.81,5.29,22.03,5.24,16.11z"/>
		</g>
	</g>
	<g>
		<g>
			<path class="st3" d="M15.99,26.36c-5.67,0.02-10.32-4.61-10.35-10.3C5.61,10.31,10.22,5.66,15.98,5.64
				c5.7-0.02,10.36,4.6,10.38,10.3C26.38,21.71,21.78,26.34,15.99,26.36z"/>
		</g>
	</g>
	<g>
		<g>
			<path class="st4" d="M8.97,11.89l-0.13,0.12l-0.78-0.33l0.15,0.05c-0.09,0-0.18,0.02-0.25,0.03c-0.08,0.02-0.14,0.04-0.2,0.06
				c-0.06,0.02-0.11,0.05-0.15,0.09c-0.04,0.03-0.07,0.07-0.09,0.12c-0.02,0.04-0.02,0.08-0.02,0.13c0,0.05,0.02,0.09,0.04,0.14
				c0.02,0.05,0.06,0.1,0.1,0.15l-0.06,0.05c-0.01-0.03-0.01-0.05-0.01-0.08c0-0.03,0.01-0.06,0.02-0.09
				c0.02-0.05,0.06-0.09,0.1-0.1c0.05-0.02,0.1-0.01,0.16,0.01c0.03,0.01,0.05,0.02,0.07,0.04c0.02,0.02,0.04,0.04,0.06,0.06
				l-0.05,0L7.71,11.8l0.24-0.07l0.31,0.76l-0.25,0.09C8,12.53,7.98,12.48,7.96,12.45c-0.02-0.04-0.06-0.07-0.1-0.08
				c-0.02-0.01-0.04-0.01-0.06-0.01c-0.02,0-0.03,0.01-0.05,0.02c-0.01,0.01-0.02,0.03-0.03,0.04c-0.01,0.03-0.02,0.05-0.02,0.08
				c0,0.03,0,0.05,0.01,0.08L7.47,12.7c-0.07-0.08-0.12-0.17-0.15-0.25c-0.04-0.08-0.06-0.16-0.06-0.24
				c-0.01-0.08,0.01-0.15,0.04-0.22c0.03-0.07,0.08-0.14,0.14-0.19c0.06-0.05,0.14-0.09,0.24-0.12c0.09-0.03,0.2-0.05,0.33-0.05
				l0.01,0.01c-0.07-0.02-0.13-0.05-0.18-0.07c-0.05-0.02-0.11-0.04-0.16-0.06l-0.31-0.13l0-0.01l0.13-0.09L7.6,11.3l0.07-0.16
				l0.17-0.03l-0.1,0.24l1.24,0.53L8.97,11.89z"/>
		</g>
		<g>
			<path class="st4" d="M9.36,11.21c-0.05,0.08-0.12,0.14-0.21,0.18c-0.09,0.04-0.19,0.05-0.31,0.04c-0.12-0.01-0.24-0.06-0.36-0.13
				c-0.1-0.06-0.18-0.13-0.23-0.2c-0.06-0.07-0.1-0.15-0.13-0.22c-0.03-0.08-0.04-0.15-0.04-0.21l0.09-0.04l-0.27,0.44l-0.17,0
				l0.51-0.84l0.17,0l-0.06,0.1c-0.04,0.06-0.05,0.13-0.06,0.2c0,0.07,0.01,0.15,0.04,0.23c0.03,0.08,0.07,0.15,0.12,0.22
				c0.05,0.07,0.12,0.13,0.2,0.18c0.07,0.04,0.14,0.07,0.21,0.1c0.07,0.02,0.14,0.03,0.2,0.02c0.06-0.01,0.12-0.03,0.18-0.08l0,0.06
				c-0.03,0.01-0.05,0.01-0.08,0c-0.03,0-0.06-0.02-0.09-0.03c-0.04-0.03-0.07-0.06-0.08-0.11c-0.01-0.05,0-0.09,0.03-0.14
				c0.04-0.06,0.08-0.09,0.13-0.1c0.05-0.01,0.1,0,0.15,0.03c0.06,0.04,0.1,0.08,0.11,0.14C9.41,11.09,9.4,11.15,9.36,11.21z"/>
		</g>
		<g>
			<path class="st4" d="M9.91,10.29c-0.09,0.11-0.2,0.18-0.32,0.21c-0.12,0.03-0.27,0.03-0.43-0.02C9,10.44,8.81,10.37,8.61,10.26
				l0.06-0.11c0.12,0.06,0.23,0.1,0.34,0.13c0.1,0.03,0.2,0.05,0.28,0.05c0.09,0,0.16-0.02,0.23-0.05c0.07-0.03,0.14-0.09,0.19-0.16
				c0.07-0.09,0.11-0.18,0.1-0.27c0-0.09-0.04-0.16-0.11-0.22C9.66,9.61,9.63,9.59,9.59,9.58s-0.07-0.01-0.11,0l0.07-0.09
				c0.02,0.06,0.03,0.12,0.03,0.19c0,0.06,0,0.12-0.02,0.17C9.55,9.89,9.53,9.94,9.5,9.98c-0.03,0.03-0.06,0.06-0.09,0.07
				c-0.03,0.02-0.07,0.03-0.1,0.03c-0.04,0-0.08,0-0.11-0.01c-0.04-0.01-0.07-0.03-0.11-0.06L8.77,9.76l-0.33,0.4l-0.17-0.02
				l0.95-1.16L9.39,9L8.88,9.62l0.3,0.25C9.2,9.88,9.22,9.89,9.23,9.88c0.02,0,0.03-0.02,0.05-0.03C9.3,9.82,9.32,9.78,9.32,9.74
				c0.01-0.05,0.01-0.1,0-0.15S9.3,9.47,9.29,9.41C9.38,9.39,9.47,9.4,9.56,9.42c0.09,0.02,0.18,0.07,0.27,0.15
				c0.08,0.06,0.13,0.14,0.17,0.22c0.04,0.08,0.05,0.16,0.04,0.25C10.03,10.12,9.99,10.21,9.91,10.29z M10.19,10.61
				c-0.03,0.03-0.06,0.05-0.11,0.06c-0.04,0.01-0.08-0.01-0.12-0.04c-0.04-0.03-0.06-0.07-0.06-0.11c0-0.04,0.01-0.08,0.04-0.12
				c0.03-0.03,0.06-0.05,0.11-0.06c0.04-0.01,0.08,0.01,0.12,0.04c0.04,0.03,0.06,0.07,0.06,0.11S10.22,10.58,10.19,10.61z"/>
		</g>
		<g>
			<path class="st4" d="M10.61,9.73l-0.17,0.06L9.72,9.03C9.67,9,9.62,8.97,9.57,8.96S9.48,8.95,9.45,8.98L9.44,8.99L9.27,8.95
				l0.06-0.06c0.03-0.02,0.05-0.04,0.09-0.04c0.03-0.01,0.07,0,0.12,0.02c0.04,0.02,0.09,0.04,0.14,0.09L9.68,8.97
				C9.63,8.93,9.59,8.89,9.55,8.86C9.51,8.82,9.48,8.79,9.47,8.78L9.33,8.63l0.01-0.01l0.15-0.04l0.09,0.07l0.13-0.12l0.17,0.04
				L9.69,8.75l0.93,0.97L10.61,9.73z"/>
		</g>
		<g>
			<path class="st4" d="M11.67,8.86c-0.07,0.05-0.16,0.08-0.26,0.08c-0.1,0-0.2-0.03-0.3-0.09c-0.1-0.06-0.2-0.16-0.3-0.29
				c-0.06-0.08-0.1-0.17-0.12-0.26c-0.03-0.09-0.04-0.18-0.03-0.27c0.01-0.09,0.03-0.17,0.07-0.25c0.04-0.07,0.09-0.14,0.16-0.19
				l0.14-0.1l0.16,0.07l-0.09,0.06C11.05,7.68,11,7.73,10.96,7.8c-0.04,0.07-0.06,0.14-0.06,0.22c-0.01,0.08,0,0.16,0.02,0.25
				c0.02,0.08,0.06,0.17,0.12,0.24c0.05,0.07,0.1,0.13,0.16,0.18c0.06,0.05,0.12,0.08,0.18,0.1c0.06,0.02,0.13,0.02,0.2,0
				l-0.02,0.05c-0.03-0.01-0.05-0.02-0.08-0.03c-0.02-0.02-0.05-0.04-0.07-0.07c-0.03-0.04-0.04-0.09-0.03-0.13s0.04-0.09,0.08-0.12
				c0.05-0.04,0.11-0.05,0.16-0.04c0.05,0.01,0.09,0.04,0.12,0.09c0.04,0.06,0.05,0.11,0.04,0.17C11.76,8.77,11.73,8.82,11.67,8.86z
				"/>
		</g>
		<g>
			<path class="st4" d="M11.24,7.53l-0.14-0.09l1.35-0.69l0.15,0.09L11.24,7.53z M12.55,8.21c-0.1,0.05-0.19,0.07-0.28,0.08
				c-0.09,0-0.19-0.02-0.29-0.06c-0.1-0.04-0.2-0.11-0.31-0.2c-0.11-0.09-0.22-0.21-0.34-0.34l0.09-0.08
				c0.14,0.15,0.27,0.26,0.39,0.33c0.12,0.07,0.23,0.11,0.33,0.11c0.1,0,0.2-0.02,0.3-0.07c0.09-0.05,0.15-0.11,0.19-0.18
				c0.03-0.07,0.03-0.16-0.02-0.24c-0.03-0.06-0.07-0.1-0.11-0.13c-0.04-0.03-0.08-0.04-0.13-0.04c-0.04,0-0.08,0.01-0.12,0.03
				c-0.02,0.01-0.04,0.02-0.06,0.04c-0.02,0.01-0.03,0.03-0.04,0.04l0-0.16c0.02,0.01,0.05,0.02,0.08,0.05
				c0.03,0.02,0.06,0.05,0.08,0.1c0.03,0.06,0.04,0.12,0.02,0.18c-0.02,0.06-0.06,0.1-0.12,0.14C12.14,7.83,12.07,7.84,12,7.81
				c-0.06-0.03-0.11-0.07-0.15-0.14c-0.04-0.07-0.05-0.15-0.02-0.22c0.02-0.07,0.08-0.13,0.18-0.18c0.11-0.05,0.21-0.08,0.3-0.07
				c0.1,0.01,0.18,0.04,0.26,0.1c0.08,0.06,0.14,0.13,0.19,0.23c0.05,0.1,0.08,0.2,0.07,0.29c0,0.09-0.03,0.16-0.08,0.23
				C12.7,8.12,12.64,8.17,12.55,8.21z"/>
		</g>
		<g>
			<path class="st4" d="M13.42,8l-0.18-0.02L12.88,7c-0.03-0.05-0.07-0.1-0.1-0.13c-0.04-0.03-0.08-0.04-0.12-0.03l-0.01,0
				l-0.13-0.11l0.08-0.03c0.03-0.01,0.07-0.01,0.1-0.01c0.03,0.01,0.07,0.03,0.1,0.06c0.03,0.03,0.07,0.08,0.1,0.14l-0.01,0.01
				c-0.02-0.05-0.05-0.1-0.07-0.15c-0.02-0.05-0.04-0.09-0.04-0.11l-0.07-0.19l0.01-0.01l0.16,0.03l0.05,0.1l0.17-0.06l0.13,0.11
				l-0.24,0.09L13.43,8L13.42,8z"/>
		</g>
		<g>
			<path class="st4" d="M14.61,7.64l-0.16-0.05c-0.04-0.06-0.08-0.11-0.11-0.15c-0.04-0.04-0.07-0.08-0.11-0.11
				c-0.03-0.03-0.07-0.05-0.1-0.07c-0.03-0.02-0.07-0.02-0.11-0.02l0.06-0.04c0,0.06-0.02,0.12-0.05,0.17
				c-0.03,0.05-0.08,0.08-0.15,0.1c-0.07,0.02-0.13,0.01-0.18-0.02c-0.05-0.03-0.09-0.08-0.11-0.15c-0.02-0.07-0.01-0.13,0.02-0.18
				C13.65,7.05,13.7,7.02,13.79,7c0.04-0.01,0.07-0.01,0.1-0.01c0.03,0,0.06,0,0.09,0.01l-0.2,0.11c0.01-0.02,0.02-0.04,0.03-0.07
				c0.01-0.03,0.01-0.06,0.01-0.09c-0.01-0.03-0.02-0.05-0.04-0.07c-0.02-0.02-0.04-0.04-0.07-0.05c-0.03-0.01-0.08-0.02-0.13-0.02
				c-0.06-0.01-0.12-0.02-0.16-0.03c-0.04-0.01-0.07-0.03-0.1-0.05c-0.02-0.02-0.04-0.05-0.05-0.09c0-0.01-0.01-0.03-0.01-0.05
				s0-0.03,0-0.04l0.05,0.06l-0.07,0.02L13.11,6.5l1.32-0.33l0.12,0.12l-0.25,0.06l0.32,1.28L14.61,7.64z M14.43,7.48
				c-0.01-0.04-0.03-0.09-0.05-0.16c-0.02-0.06-0.04-0.12-0.05-0.18s-0.03-0.11-0.04-0.15l-0.15-0.6l-0.69,0.17l0.09-0.07
				c0,0.01,0,0.02,0,0.03c0,0.01,0,0.02,0,0.03c0.01,0.03,0.03,0.06,0.06,0.08c0.03,0.02,0.08,0.04,0.14,0.06
				c0.06,0.01,0.11,0.03,0.16,0.05c0.04,0.02,0.08,0.05,0.1,0.08c0.03,0.03,0.05,0.08,0.06,0.13c0.01,0.02,0.01,0.04,0.01,0.07
				c0,0.02,0,0.05,0,0.08L14.01,7c0.05,0.01,0.1,0.03,0.15,0.07c0.05,0.03,0.1,0.08,0.15,0.14c0.05,0.06,0.09,0.13,0.14,0.22
				L14.43,7.48z"/>
		</g>
		<g>
			<path class="st4" d="M15.11,7.6l-0.17-0.05L14.8,6.5c-0.02-0.06-0.04-0.11-0.07-0.15c-0.03-0.04-0.07-0.06-0.11-0.05l-0.01,0
				l-0.11-0.13l0.08-0.01c0.03,0,0.07,0,0.1,0.02c0.03,0.02,0.06,0.04,0.09,0.08c0.03,0.04,0.05,0.09,0.06,0.15l-0.02,0.01
				c-0.01-0.05-0.03-0.11-0.04-0.16c-0.01-0.05-0.02-0.09-0.02-0.11l-0.03-0.2l0.01-0.01L14.88,6l0.03,0.11l0.18-0.02l0.11,0.13
				l-0.25,0.03l0.18,1.33L15.11,7.6z"/>
		</g>
		<g>
			<path class="st4" d="M16.28,7.5l-0.14-0.09c-0.06-0.09-0.12-0.16-0.2-0.22c-0.08-0.06-0.16-0.1-0.25-0.14
				C15.6,7.02,15.5,7,15.4,6.99l-0.12-0.3c0.09-0.06,0.17-0.12,0.26-0.17c0.09-0.05,0.18-0.1,0.27-0.14C15.9,6.34,16,6.3,16.1,6.27
				l-0.02,0.08l-0.01-0.17l-0.85,0.03l-0.09-0.14l1.28-0.04l0.09,0.14l-0.26,0.01l0.04,1.32L16.28,7.5z M16.11,7.28l-0.03-0.81
				l0.04,0.06c-0.06,0.02-0.13,0.05-0.2,0.08c-0.07,0.03-0.14,0.07-0.2,0.1c-0.06,0.04-0.13,0.08-0.18,0.12l-0.02-0.05
				c0.07,0.01,0.14,0.04,0.22,0.07c0.08,0.03,0.15,0.08,0.22,0.14s0.13,0.14,0.19,0.24L16.11,7.28z M15.75,7.51
				c-0.04,0-0.08-0.01-0.12-0.04c-0.03-0.03-0.05-0.07-0.05-0.11c0-0.05,0.01-0.09,0.04-0.12c0.03-0.03,0.07-0.05,0.11-0.05
				c0.04,0,0.08,0.01,0.11,0.04c0.03,0.03,0.05,0.07,0.05,0.11c0,0.05-0.01,0.09-0.04,0.12C15.83,7.49,15.79,7.51,15.75,7.51z"/>
		</g>
		<g>
			<path class="st4" d="M18.34,7.86l-0.1-0.11c-0.03-0.06-0.06-0.1-0.1-0.13C18.1,7.59,18.05,7.57,18,7.56
				c-0.06-0.01-0.11-0.02-0.16-0.02c-0.05,0-0.1-0.01-0.15-0.01c-0.05,0-0.11-0.01-0.17-0.02c-0.08-0.02-0.14-0.04-0.2-0.09
				c-0.06-0.04-0.1-0.1-0.13-0.18c-0.03-0.08-0.03-0.17,0-0.29c0.01-0.05,0.02-0.09,0.04-0.14c0.02-0.04,0.03-0.09,0.06-0.13
				l0.11,0.05c-0.02,0.03-0.03,0.06-0.04,0.09c-0.01,0.03-0.02,0.06-0.03,0.09c-0.01,0.06-0.01,0.12,0.01,0.16
				c0.02,0.04,0.05,0.08,0.09,0.11c0.04,0.03,0.1,0.05,0.16,0.06c0.06,0.01,0.11,0.02,0.15,0.02c0.04,0,0.08,0.01,0.12,0.01
				c0.04,0,0.07,0.01,0.11,0.02c0.05,0.01,0.09,0.03,0.13,0.05c0.04,0.02,0.07,0.05,0.09,0.09c0.03,0.04,0.05,0.09,0.07,0.15
				c0-0.04,0.01-0.09,0.01-0.14s0.01-0.1,0.02-0.14l0.09-0.43l0,0.13c-0.02-0.09-0.04-0.18-0.07-0.25
				c-0.03-0.07-0.05-0.13-0.08-0.18c-0.03-0.05-0.06-0.09-0.1-0.11c-0.03-0.03-0.07-0.05-0.12-0.06C17.98,6.4,17.94,6.4,17.9,6.42
				c-0.04,0.01-0.07,0.03-0.11,0.06c-0.04,0.03-0.07,0.07-0.11,0.11l-0.12-0.06c0.02-0.01,0.05-0.02,0.07-0.02
				c0.03-0.01,0.06,0,0.09,0c0.06,0.01,0.1,0.04,0.13,0.08c0.03,0.04,0.03,0.1,0.02,0.16c-0.01,0.03-0.02,0.06-0.03,0.08
				c-0.02,0.03-0.03,0.05-0.05,0.07l-0.02-0.06l0.46-0.31l0.12,0.21l-0.63,0.4l-0.15-0.22c0.03-0.01,0.05-0.02,0.08-0.04
				c0.03-0.01,0.05-0.03,0.07-0.06c0.02-0.02,0.03-0.05,0.04-0.08c0.01-0.04,0-0.06-0.01-0.08c-0.02-0.02-0.04-0.03-0.06-0.04
				c-0.03-0.01-0.06,0-0.08,0c-0.03,0.01-0.05,0.02-0.07,0.04l-0.15-0.23c0.07-0.07,0.14-0.13,0.21-0.18
				c0.07-0.04,0.14-0.08,0.21-0.09c0.07-0.02,0.13-0.02,0.2-0.01c0.08,0.02,0.15,0.05,0.2,0.1c0.06,0.05,0.11,0.12,0.15,0.21
				c0.04,0.09,0.07,0.19,0.1,0.32l-0.02,0.02c0.01-0.08,0.02-0.15,0.03-0.22c0.01-0.06,0.02-0.12,0.03-0.18l0.06-0.3l0.01,0
				l0.12,0.11l-0.01,0.11l0.17,0.04l0.06,0.16L18.64,6.5l-0.28,1.36L18.34,7.86z"/>
		</g>
		<g>
			<path class="st4" d="M19.34,8.01c-0.09-0.04-0.17-0.09-0.23-0.16c-0.06-0.07-0.11-0.15-0.15-0.25c-0.03-0.1-0.05-0.22-0.05-0.36
				c0-0.14,0.01-0.3,0.04-0.48l0.12,0.01c-0.02,0.2-0.02,0.37,0,0.51c0.02,0.13,0.07,0.24,0.13,0.32c0.06,0.08,0.14,0.14,0.23,0.17
				c0.07,0.03,0.14,0.04,0.2,0.04s0.12-0.02,0.17-0.05c0.05-0.03,0.09-0.08,0.11-0.14c0.02-0.05,0.03-0.09,0.03-0.13
				s0-0.08-0.01-0.11l0.06,0.03c-0.1,0.06-0.19,0.09-0.29,0.11c-0.09,0.01-0.18,0-0.26-0.03c-0.06-0.02-0.11-0.06-0.14-0.1
				c-0.04-0.04-0.06-0.09-0.07-0.14c-0.01-0.05,0-0.1,0.02-0.15c0.02-0.05,0.06-0.09,0.11-0.12c0.05-0.03,0.1-0.03,0.17,0
				c0.05,0.02,0.08,0.05,0.1,0.1s0.02,0.09,0,0.15c-0.01,0.03-0.03,0.05-0.05,0.07c-0.02,0.02-0.04,0.03-0.07,0.04l-0.02-0.06
				c0.06,0.02,0.13,0.02,0.21,0c0.08-0.02,0.18-0.06,0.3-0.13c0.02,0.04,0.04,0.09,0.06,0.15c0.02,0.06,0.02,0.12,0.02,0.2
				c0,0.07-0.02,0.15-0.05,0.23c-0.04,0.11-0.1,0.19-0.17,0.25c-0.07,0.06-0.15,0.09-0.24,0.1C19.53,8.07,19.43,8.05,19.34,8.01z
				 M18.99,6.59l-0.03-0.17l1.41,0.57l0.03,0.17L18.99,6.59z"/>
		</g>
		<g>
			<path class="st4" d="M19.57,8.82c-0.02-0.1-0.05-0.2-0.09-0.29c-0.04-0.09-0.09-0.17-0.16-0.24c-0.07-0.07-0.15-0.12-0.24-0.17
				c-0.05-0.02-0.09-0.03-0.12-0.02c-0.03,0.01-0.05,0.02-0.06,0.05c-0.01,0.03-0.01,0.06,0,0.08c0.01,0.03,0.04,0.05,0.08,0.06
				c0.04,0.02,0.07,0.02,0.11,0.02c0.04,0,0.07-0.02,0.11-0.05c0.04-0.03,0.07-0.08,0.1-0.15c0.01-0.02,0.02-0.05,0.03-0.08
				c0.01-0.03,0.01-0.06,0.02-0.09c0-0.03,0.01-0.05,0.01-0.07l0.14,0.02c0,0.05-0.01,0.11-0.02,0.17
				c-0.02,0.06-0.04,0.12-0.06,0.18c-0.03,0.07-0.07,0.12-0.12,0.16c-0.05,0.04-0.1,0.07-0.17,0.08c-0.06,0.01-0.13,0-0.2-0.03
				c-0.08-0.03-0.13-0.09-0.16-0.15c-0.03-0.07-0.03-0.14,0-0.21c0.03-0.07,0.08-0.12,0.16-0.14c0.07-0.02,0.16-0.01,0.25,0.03
				c0.08,0.03,0.15,0.08,0.21,0.14c0.06,0.06,0.11,0.13,0.15,0.2c0.04,0.07,0.07,0.15,0.1,0.24c0.02,0.08,0.04,0.16,0.04,0.24
				L19.57,8.82z"/>
		</g>
		<g>
			<path class="st4" d="M20.2,8.59c-0.04-0.02-0.06-0.05-0.08-0.1c-0.01-0.04-0.01-0.08,0.02-0.12c0.02-0.04,0.06-0.07,0.1-0.07
				c0.04-0.01,0.08,0,0.12,0.02c0.04,0.02,0.06,0.06,0.07,0.1c0.01,0.04,0,0.08-0.02,0.12c-0.03,0.04-0.06,0.07-0.1,0.07
				C20.28,8.62,20.24,8.61,20.2,8.59z M20.65,8.87l-0.07-0.15c0-0.1-0.02-0.2-0.05-0.29c-0.03-0.09-0.08-0.17-0.13-0.25
				s-0.13-0.15-0.21-0.22l0.06-0.32c0.11,0,0.21,0,0.31,0c0.1,0.01,0.2,0.02,0.3,0.03c0.1,0.02,0.2,0.04,0.31,0.07L21.11,7.8
				l0.09-0.15l-0.73-0.44l0-0.17l1.1,0.66l0,0.17l-0.22-0.13l-0.68,1.13L20.65,8.87z M20.63,8.6l0.42-0.7l0,0.07
				c-0.07-0.01-0.14-0.03-0.21-0.04c-0.08-0.01-0.15-0.02-0.22-0.02c-0.07,0-0.15,0-0.22,0l0.01-0.06c0.05,0.05,0.1,0.11,0.14,0.18
				c0.04,0.07,0.08,0.15,0.1,0.24c0.02,0.09,0.03,0.19,0.03,0.3L20.63,8.6z"/>
		</g>
		<g>
			<path class="st4" d="M21.99,10l-0.03-0.15c0.03-0.04,0.07-0.09,0.1-0.14c0.03-0.05,0.06-0.11,0.08-0.17
				c0.02-0.06,0.04-0.11,0.05-0.17c0.01-0.05,0.01-0.11,0-0.15c-0.01-0.05-0.03-0.09-0.07-0.12c-0.01-0.01-0.03-0.02-0.04-0.03
				s-0.03-0.02-0.04-0.02l0.13-0.04c0.01,0.03,0,0.05-0.01,0.08c-0.01,0.03-0.03,0.05-0.05,0.07c-0.03,0.03-0.06,0.05-0.1,0.07
				c-0.04,0.01-0.07,0.02-0.11,0.01c-0.04-0.01-0.08-0.03-0.12-0.07c-0.06-0.06-0.09-0.12-0.09-0.19c0-0.07,0.03-0.13,0.08-0.19
				c0.06-0.06,0.13-0.09,0.2-0.09c0.07,0,0.14,0.04,0.21,0.1c0.05,0.05,0.09,0.1,0.11,0.15s0.04,0.11,0.04,0.18s0,0.12-0.01,0.19
				c-0.01,0.06-0.03,0.12-0.06,0.18c-0.03,0.06-0.06,0.11-0.09,0.16l-0.02-0.02c0.02-0.02,0.05-0.05,0.08-0.09
				c0.03-0.04,0.07-0.08,0.1-0.13c0.04-0.04,0.07-0.08,0.11-0.12l0.33-0.35l-0.65-0.61l0.04-0.17l0.96,0.91L23.1,9.23l-0.19-0.18
				l-0.91,0.96L21.99,10z"/>
		</g>
		<g>
			<path class="st4" d="M22.3,10.4l-0.05-0.17l0.8-0.68c0.04-0.05,0.07-0.1,0.08-0.14c0.02-0.05,0.01-0.09-0.02-0.12l-0.01-0.01
				l0.05-0.16l0.06,0.06c0.02,0.03,0.04,0.06,0.04,0.09c0,0.03,0,0.07-0.02,0.12c-0.02,0.04-0.05,0.09-0.09,0.14l-0.02-0.01
				c0.04-0.04,0.08-0.08,0.12-0.12c0.04-0.04,0.07-0.06,0.08-0.08l0.15-0.13l0.01,0.01l0.03,0.16l-0.08,0.08l0.12,0.14L23.5,9.72
				l-0.17-0.19l-1.02,0.88L22.3,10.4z"/>
		</g>
		<g>
			<path class="st4" d="M22.81,11.02c-0.05-0.08-0.08-0.16-0.08-0.26s0.03-0.2,0.09-0.3c0.06-0.1,0.15-0.19,0.26-0.28
				c0.09-0.07,0.18-0.11,0.27-0.14c0.09-0.03,0.17-0.04,0.25-0.03c0.08,0,0.15,0.02,0.21,0.04l0,0.1l-0.3-0.42l0.07-0.16l0.57,0.8
				l-0.07,0.16l-0.07-0.1c-0.04-0.06-0.09-0.1-0.16-0.13c-0.07-0.03-0.14-0.05-0.23-0.05c-0.08-0.01-0.17,0-0.25,0.03
				c-0.08,0.02-0.16,0.06-0.24,0.12c-0.07,0.05-0.12,0.1-0.17,0.15c-0.05,0.06-0.08,0.11-0.1,0.18c-0.02,0.06-0.02,0.13,0,0.2
				l-0.05-0.02c0.01-0.03,0.02-0.05,0.03-0.08c0.02-0.02,0.04-0.05,0.07-0.07c0.04-0.03,0.09-0.04,0.13-0.03
				c0.05,0.01,0.09,0.04,0.12,0.08c0.04,0.05,0.05,0.11,0.04,0.16c-0.01,0.05-0.04,0.09-0.09,0.12c-0.06,0.04-0.11,0.06-0.17,0.05
				C22.9,11.12,22.85,11.09,22.81,11.02z"/>
		</g>
		<g>
			<path class="st4" d="M23.47,12.16L23.48,12c0.05-0.05,0.09-0.1,0.12-0.15c0.03-0.05,0.06-0.09,0.08-0.13
				c0.02-0.04,0.04-0.08,0.04-0.12c0.01-0.04,0.01-0.07,0-0.11l0.05,0.05c-0.06,0.01-0.12,0.01-0.18-0.01
				c-0.06-0.02-0.1-0.06-0.14-0.12c-0.03-0.06-0.04-0.12-0.02-0.18c0.02-0.06,0.06-0.11,0.12-0.14c0.06-0.03,0.12-0.04,0.18-0.02
				s0.11,0.07,0.15,0.14c0.02,0.03,0.03,0.06,0.04,0.09c0.01,0.03,0.01,0.06,0.01,0.09l-0.15-0.17c0.02,0.01,0.04,0.01,0.07,0.02
				c0.03,0,0.06,0,0.09-0.02c0.03-0.01,0.05-0.03,0.06-0.05c0.02-0.02,0.03-0.05,0.03-0.08c0.01-0.03,0-0.08-0.01-0.13
				c-0.01-0.06-0.01-0.12-0.01-0.16c0-0.04,0.01-0.08,0.03-0.11c0.02-0.03,0.04-0.05,0.07-0.07c0.01-0.01,0.03-0.01,0.04-0.02
				c0.02-0.01,0.03-0.01,0.04-0.01l-0.05,0.06l-0.04-0.07l0.09-0.15l0.64,1.2l-0.09,0.15l-0.12-0.23l-1.16,0.62L23.47,12.16z
				 M23.58,11.95c0.04-0.02,0.08-0.05,0.14-0.08c0.05-0.03,0.11-0.07,0.16-0.1c0.05-0.03,0.1-0.06,0.13-0.07l0.54-0.29l-0.33-0.62
				l0.09,0.07c-0.01,0-0.02,0-0.03,0c-0.01,0-0.02,0.01-0.03,0.01c-0.03,0.02-0.05,0.04-0.07,0.08c-0.02,0.04-0.02,0.09-0.02,0.15
				c0,0.06,0,0.12-0.01,0.16c-0.01,0.05-0.03,0.09-0.05,0.12c-0.03,0.03-0.06,0.06-0.11,0.09c-0.02,0.01-0.04,0.02-0.06,0.03
				c-0.02,0.01-0.05,0.02-0.07,0.02l0.09-0.09c0,0.05-0.01,0.1-0.03,0.16c-0.02,0.06-0.06,0.12-0.1,0.18
				c-0.05,0.06-0.1,0.12-0.18,0.19L23.58,11.95z"/>
		</g>
	</g>
	<g>
		<g>
			<g>
				<path class="st1" d="M15.97,22.85v0.47c0,0-1.88-1.68-5.88-1.6c-0.07,0-0.13,0-0.2,0.01c-0.28,0.01-0.58,0.03-0.88,0.06v-7.76
					c0,0,0.14-0.16,0.56-0.18c0.02,0,0.04,0,0.06,0v7.34c0,0,0.05,0,0.14-0.01C10.5,21.16,13.89,21.16,15.97,22.85z"/>
			</g>
		</g>
		<g>
			<g>
				<path class="st1" d="M22.93,14.02v7.76c-0.32-0.03-0.64-0.05-0.94-0.06c-0.03,0-0.06,0-0.08,0c-4.04-0.1-5.94,1.6-5.94,1.6
					v-0.47c2.14-1.74,5.68-1.68,6.25-1.66c0.05,0,0.08,0,0.08,0v-7.34c0,0,0,0,0,0C22.78,13.85,22.93,14.02,22.93,14.02z"/>
			</g>
		</g>
	</g>
	<g>
		<g>
			<g>
				<path class="st1" d="M21.95,12.43v8.17c-1.18-0.05-2.18,0.1-3.01,0.31c-0.72,0.19-1.3,0.43-1.75,0.66
					c-0.73,0.37-1.1,0.71-1.1,0.71V13.4c1.3-1.02,2.97-1.21,4.19-1.17c0.07,0,0.14,0,0.21,0.01c0.21,0.01,0.41,0.03,0.58,0.05
					c0.01,0,0.01,0,0.02,0C21.62,12.35,21.95,12.43,21.95,12.43z"/>
			</g>
		</g>
		<g>
			<g>
				<path class="st1" d="M15.97,13.43v8.85c-0.31-0.25-0.64-0.46-1-0.64c-0.68-0.35-1.42-0.57-2.12-0.73
					c-1.53-0.33-2.86-0.29-2.86-0.29v-8.26c0.24-0.03,0.48-0.06,0.7-0.08c0.04,0,0.07-0.01,0.11-0.01c0.16-0.01,0.32-0.02,0.47-0.03
					c0.15-0.01,0.3-0.01,0.45-0.01C14.9,12.19,15.97,13.43,15.97,13.43z"/>
			</g>
		</g>
	</g>
	<g>
		<g>
			<path class="st5" d="M13.62,15.81l-0.14-0.09c-0.05-0.08-0.11-0.15-0.17-0.21s-0.13-0.11-0.2-0.14l0.06-0.18
				c0.06,0.03,0.11,0.08,0.16,0.13c0.05,0.06,0.1,0.13,0.15,0.23l-0.03,0.04v-1.15h-1.5l-0.09-0.15h1.94l0.09,0.15h-0.27v1.36
				L13.62,15.81z M12.78,15.61c-0.09,0-0.17-0.02-0.25-0.05c-0.08-0.03-0.15-0.09-0.21-0.16c-0.07-0.07-0.13-0.17-0.18-0.3
				c-0.06-0.12-0.11-0.27-0.15-0.45l0.12-0.03c0.06,0.18,0.12,0.32,0.18,0.43c0.07,0.11,0.14,0.18,0.22,0.22
				c0.08,0.04,0.16,0.07,0.26,0.07c0.11,0,0.19-0.02,0.25-0.07c0.06-0.05,0.09-0.12,0.09-0.21c0-0.06-0.01-0.1-0.03-0.14
				c-0.02-0.04-0.05-0.06-0.08-0.08c-0.03-0.02-0.06-0.02-0.1-0.02c-0.02,0-0.05,0-0.07,0.01c-0.02,0.01-0.04,0.01-0.06,0.02
				c-0.01-0.07-0.03-0.13-0.05-0.18c-0.03-0.05-0.07-0.1-0.13-0.14c-0.06-0.04-0.13-0.07-0.23-0.1l0.33,0
				c0.03,0.03,0.07,0.06,0.1,0.1c0.03,0.04,0.06,0.09,0.09,0.14c0.02,0.05,0.04,0.11,0.04,0.17c0,0.07-0.02,0.13-0.06,0.18
				c-0.04,0.05-0.1,0.07-0.17,0.07c-0.07,0-0.13-0.02-0.18-0.07c-0.05-0.05-0.07-0.11-0.07-0.18c0-0.09,0.03-0.15,0.09-0.2
				c0.06-0.05,0.14-0.07,0.23-0.07c0.11,0,0.2,0.02,0.28,0.07c0.08,0.05,0.13,0.11,0.17,0.19c0.04,0.08,0.06,0.16,0.06,0.25
				c0,0.08-0.01,0.15-0.03,0.22c-0.02,0.06-0.05,0.12-0.09,0.17c-0.04,0.05-0.09,0.08-0.15,0.11C12.92,15.6,12.85,15.61,12.78,15.61
				z"/>
			<path class="st5" d="M13.62,15.83l-0.16-0.11c-0.05-0.08-0.1-0.15-0.16-0.21c-0.04-0.03-0.07-0.06-0.11-0.09
				c-0.01,0.02-0.02,0.04-0.04,0.05c-0.04,0.05-0.1,0.09-0.16,0.11c-0.06,0.03-0.13,0.04-0.21,0.04c-0.09,0-0.17-0.02-0.25-0.05
				c-0.08-0.03-0.15-0.09-0.22-0.17c-0.07-0.08-0.13-0.18-0.19-0.3c-0.06-0.12-0.11-0.28-0.16-0.46l0-0.02l0.15-0.04l0.01,0.02
				c0.06,0.18,0.12,0.32,0.18,0.42c0.06,0.1,0.14,0.18,0.21,0.22c0.08,0.04,0.16,0.06,0.25,0.06c0.1,0,0.18-0.02,0.24-0.07
				c0.06-0.04,0.09-0.11,0.08-0.2c0-0.05-0.01-0.1-0.03-0.13c-0.02-0.03-0.04-0.06-0.07-0.07c-0.02-0.01-0.03-0.01-0.05-0.02
				c0,0,0,0,0,0c0,0.08-0.02,0.14-0.06,0.19c-0.04,0.05-0.11,0.08-0.19,0.08c-0.08,0-0.14-0.02-0.19-0.07
				c-0.05-0.05-0.08-0.11-0.08-0.19c0-0.09,0.03-0.16,0.1-0.21c0.03-0.03,0.07-0.04,0.11-0.06c-0.01-0.01-0.03-0.02-0.04-0.04
				c-0.04-0.03-0.09-0.05-0.14-0.07h-0.48l-0.11-0.19h1.99l0.11,0.19h-0.28v1.36L13.62,15.83z M13.49,15.7l0.13,0.08v-1.36h0.25
				l-0.07-0.11h-1.9l0.07,0.11h0.33l-0.08-0.02l0.49,0l0.01,0c0.01,0.01,0.02,0.01,0.02,0.02h0.75v1.07
				c0.01,0.02,0.02,0.03,0.02,0.05l0,0.01l-0.06,0.09C13.46,15.66,13.47,15.68,13.49,15.7z M13.2,15.4c0.04,0.03,0.08,0.06,0.12,0.1
				c0.04,0.04,0.08,0.08,0.12,0.13V15.5c-0.04-0.07-0.08-0.13-0.12-0.17c-0.02-0.02-0.04-0.04-0.07-0.06c0,0.01-0.01,0.02-0.01,0.04
				C13.23,15.34,13.21,15.37,13.2,15.4z M12,14.66c0.04,0.17,0.09,0.31,0.15,0.43c0.06,0.12,0.12,0.22,0.18,0.29
				c0.06,0.07,0.13,0.13,0.21,0.16c0.07,0.03,0.15,0.05,0.24,0.05c0.07,0,0.14-0.01,0.19-0.04c0.06-0.02,0.1-0.06,0.14-0.1
				c0.01-0.01,0.02-0.03,0.04-0.05c-0.02-0.01-0.04-0.02-0.05-0.03l-0.01-0.01l0.07-0.21l0.02,0.01c0.02,0.01,0.03,0.02,0.05,0.03
				c0.01-0.04,0.01-0.08,0.01-0.12c0-0.09-0.02-0.17-0.06-0.25c-0.04-0.07-0.09-0.14-0.16-0.18c-0.04-0.03-0.09-0.05-0.15-0.06
				c0.01,0.02,0.02,0.04,0.03,0.05c0.02,0.04,0.03,0.09,0.04,0.14c0.02,0,0.04,0.01,0.07,0.02c0.03,0.02,0.06,0.05,0.09,0.09
				c0.02,0.04,0.04,0.09,0.04,0.15c0.01,0.1-0.03,0.18-0.1,0.23c-0.07,0.05-0.16,0.07-0.27,0.07c-0.09,0-0.18-0.02-0.26-0.07
				c-0.08-0.05-0.16-0.12-0.22-0.23c-0.06-0.1-0.13-0.24-0.18-0.41L12,14.66z M13.26,15.23c0.03,0.02,0.06,0.05,0.09,0.08
				c0.03,0.03,0.06,0.07,0.09,0.12v-0.97h-0.67c0.01,0.01,0.03,0.03,0.04,0.05c0.01,0.02,0.02,0.03,0.04,0.05
				c0.07,0.01,0.14,0.03,0.19,0.07c0.08,0.05,0.14,0.11,0.18,0.2c0.04,0.08,0.06,0.17,0.06,0.26
				C13.27,15.14,13.27,15.18,13.26,15.23z M13.13,15.35c0.01,0.01,0.03,0.02,0.04,0.02c0.01-0.03,0.03-0.05,0.03-0.08
				c0.01-0.02,0.01-0.03,0.01-0.05c-0.01-0.01-0.03-0.02-0.04-0.03L13.13,15.35z M12.65,14.6c-0.05,0.01-0.09,0.03-0.12,0.06
				c-0.05,0.04-0.08,0.1-0.08,0.19c0,0.07,0.02,0.12,0.07,0.17c0.05,0.04,0.1,0.06,0.17,0.06c0.07,0,0.12-0.02,0.16-0.07
				c0.04-0.04,0.06-0.1,0.06-0.17c0,0,0-0.01,0-0.01c-0.02,0-0.05,0-0.06,0.01c-0.02,0.01-0.04,0.01-0.06,0.02l-0.02,0.01l0-0.03
				c-0.01-0.06-0.02-0.12-0.05-0.17C12.68,14.64,12.66,14.62,12.65,14.6z M12.69,14.59c0.01,0.02,0.03,0.04,0.04,0.06
				c0.03,0.05,0.04,0.1,0.05,0.16c0.01-0.01,0.03-0.01,0.04-0.01c0.02-0.01,0.05-0.01,0.07-0.01c0-0.04-0.01-0.08-0.03-0.12
				c-0.01-0.03-0.03-0.05-0.04-0.08C12.78,14.59,12.73,14.59,12.69,14.59z M12.52,14.46c0.03,0.01,0.05,0.03,0.07,0.04
				c0.02,0.02,0.04,0.04,0.06,0.06c0.04-0.01,0.09-0.01,0.13-0.01c-0.01-0.01-0.01-0.02-0.02-0.02c-0.02-0.03-0.04-0.05-0.06-0.07
				H12.52z"/>
		</g>
	</g>
	<g>
		<g>
			<path class="st5" d="M13.11,19.43l-0.16-0.11c-0.06-0.1-0.14-0.18-0.22-0.25c-0.08-0.07-0.18-0.13-0.28-0.17
				c-0.1-0.04-0.21-0.07-0.33-0.09l-0.13-0.35c0.1-0.07,0.2-0.13,0.31-0.18c0.1-0.05,0.21-0.1,0.32-0.15
				c0.11-0.04,0.22-0.08,0.34-0.12l-0.02,0.1v-0.2h-0.96l-0.1-0.17h1.97l0.1,0.17h-0.8v0.17l-0.04-0.07
				c0.14,0.01,0.26,0.04,0.36,0.1s0.18,0.14,0.24,0.23c0.06,0.09,0.08,0.19,0.08,0.3c0,0.11-0.02,0.2-0.07,0.26s-0.12,0.1-0.2,0.1
				c-0.07,0-0.13-0.02-0.16-0.07c-0.04-0.04-0.05-0.09-0.05-0.15c0-0.06,0.02-0.1,0.05-0.14c0.03-0.04,0.08-0.06,0.14-0.06
				c0.05,0,0.09,0.01,0.12,0.04s0.05,0.07,0.06,0.13l-0.05,0c0.01-0.02,0.02-0.03,0.02-0.05c0-0.01,0.01-0.03,0.01-0.05
				c0-0.05-0.01-0.09-0.04-0.13c-0.02-0.04-0.06-0.08-0.1-0.11c-0.04-0.03-0.1-0.06-0.16-0.08c-0.06-0.02-0.13-0.03-0.21-0.03
				c-0.02,0-0.03,0-0.05,0.01l0.04-0.06v1.16L13.11,19.43z M12.93,19.17v-0.93l0.04,0.07c-0.07,0.02-0.15,0.05-0.23,0.09
				c-0.08,0.03-0.16,0.07-0.23,0.11c-0.07,0.04-0.14,0.08-0.21,0.13l-0.03-0.06c0.08,0.02,0.16,0.05,0.25,0.09
				c0.08,0.04,0.16,0.1,0.24,0.17c0.08,0.07,0.14,0.16,0.2,0.27L12.93,19.17z"/>
			<path class="st5" d="M13.1,19.45l-0.17-0.12c-0.06-0.1-0.13-0.18-0.22-0.25c-0.08-0.07-0.17-0.12-0.27-0.17
				c-0.1-0.04-0.21-0.07-0.33-0.09l-0.01,0l-0.14-0.37l0.01-0.01c0.1-0.07,0.2-0.13,0.31-0.18c0.1-0.05,0.21-0.1,0.32-0.15
				c0.1-0.04,0.2-0.07,0.3-0.11v-0.07h-0.96l-0.12-0.2h2.01l0.12,0.2h-0.82v0.07c0.12,0.01,0.22,0.05,0.31,0.1
				c0.1,0.06,0.19,0.14,0.24,0.23c0.06,0.09,0.09,0.2,0.09,0.31c0,0.11-0.03,0.2-0.08,0.27c-0.05,0.07-0.12,0.11-0.22,0.11
				c-0.08,0-0.14-0.02-0.18-0.07c-0.04-0.05-0.06-0.1-0.06-0.16c0-0.06,0.02-0.11,0.06-0.15c0.04-0.04,0.09-0.06,0.15-0.06
				c0.05,0,0.1,0.02,0.14,0.05c0,0,0.01,0.01,0.01,0.01c0-0.03-0.01-0.06-0.03-0.09c-0.02-0.04-0.05-0.08-0.1-0.11
				c-0.04-0.03-0.09-0.06-0.15-0.08c-0.06-0.02-0.12-0.03-0.19-0.03v1.1L13.1,19.45z M12.96,19.31l0.15,0.1v-1.07
				c-0.01,0-0.01,0-0.02,0l-0.05,0.02l0.11-0.16v0.09c0.07,0,0.14,0.01,0.2,0.03c0.06,0.02,0.12,0.05,0.17,0.08
				c0.05,0.03,0.08,0.07,0.11,0.12c0.02,0.05,0.04,0.09,0.04,0.14c0,0.01,0,0.02,0,0.03c0.01,0.02,0.01,0.04,0.02,0.06l0,0.02
				l-0.11,0.01l0.02-0.03c0.01-0.01,0.02-0.03,0.02-0.04c0,0,0-0.01,0-0.01c-0.01-0.02-0.02-0.04-0.04-0.05
				c-0.03-0.02-0.07-0.04-0.11-0.04c-0.05,0-0.1,0.02-0.13,0.05c-0.03,0.03-0.05,0.08-0.05,0.13c0,0.05,0.02,0.1,0.05,0.14
				c0.03,0.04,0.08,0.06,0.15,0.06c0.08,0,0.14-0.03,0.19-0.09c0.05-0.06,0.07-0.15,0.07-0.25c0-0.1-0.03-0.2-0.08-0.29
				c-0.05-0.09-0.13-0.16-0.23-0.22c-0.08-0.05-0.18-0.08-0.3-0.1v0.11L13.05,18l0.04,0c0.01,0,0.01,0,0.02,0v-0.1h0.79l-0.08-0.13
				h-1.92l0.08,0.13h0.97V18l0.03-0.01l-0.05,0.21l0.07,0.12l-0.02,0.01c-0.01,0-0.02,0.01-0.03,0.01v0.72
				c0.01,0.02,0.02,0.03,0.03,0.05l0.01,0.01l-0.07,0.11C12.93,19.26,12.95,19.28,12.96,19.31z M12.13,18.8
				c0.12,0.02,0.23,0.05,0.33,0.09c0.1,0.04,0.2,0.1,0.28,0.17c0.06,0.05,0.12,0.11,0.17,0.17v-0.15c-0.05-0.08-0.11-0.15-0.17-0.21
				c-0.07-0.07-0.15-0.13-0.24-0.17c-0.05-0.03-0.1-0.05-0.15-0.07c-0.02,0.01-0.03,0.02-0.05,0.03l-0.02,0.01l-0.05-0.11l0.04,0.01
				c0.02,0.01,0.05,0.01,0.07,0.02c0.05-0.03,0.1-0.06,0.15-0.09c0.08-0.04,0.15-0.08,0.23-0.11c0.06-0.03,0.12-0.05,0.18-0.07
				v-0.27c-0.1,0.03-0.2,0.07-0.29,0.1c-0.11,0.04-0.21,0.09-0.31,0.15c-0.1,0.05-0.2,0.11-0.29,0.17L12.13,18.8z M12.39,18.6
				c0.04,0.02,0.09,0.04,0.13,0.06c0.09,0.04,0.17,0.1,0.25,0.18c0.05,0.05,0.1,0.1,0.14,0.17v-0.65c-0.05,0.02-0.11,0.04-0.16,0.06
				c-0.08,0.03-0.16,0.07-0.23,0.11C12.47,18.56,12.43,18.58,12.39,18.6z M12.3,18.61L12.3,18.61C12.3,18.62,12.3,18.62,12.3,18.61
				C12.3,18.61,12.3,18.61,12.3,18.61z"/>
		</g>
	</g>
	<g>
		<g>
			<path class="st5" d="M19.35,19.58l-0.16-0.1c-0.06-0.1-0.13-0.18-0.21-0.25c-0.08-0.07-0.18-0.13-0.28-0.17s-0.22-0.07-0.34-0.08
				l-0.12-0.33c0.08,0,0.15-0.01,0.22-0.02s0.13-0.03,0.19-0.06c0.06-0.03,0.1-0.06,0.13-0.1c0.03-0.04,0.05-0.09,0.05-0.14
				c0-0.04-0.01-0.08-0.03-0.11c-0.02-0.03-0.04-0.06-0.07-0.09l0.11,0.01c-0.05,0.07-0.1,0.13-0.16,0.19
				c-0.06,0.05-0.12,0.09-0.19,0.11c-0.07,0.03-0.13,0.04-0.2,0.04c-0.05,0-0.1-0.01-0.15-0.03c-0.05-0.02-0.08-0.05-0.11-0.1
				c-0.03-0.04-0.04-0.1-0.04-0.16c0-0.06,0.02-0.11,0.05-0.15c0.03-0.04,0.08-0.05,0.15-0.05c0.06,0,0.11,0.02,0.14,0.05
				c0.03,0.03,0.05,0.07,0.05,0.12c0,0.03,0,0.06-0.01,0.09c-0.01,0.02-0.03,0.05-0.05,0.07l-0.08-0.09
				c0.01,0.01,0.02,0.01,0.04,0.01c0.01,0,0.03,0,0.05,0c0.04,0,0.09-0.01,0.14-0.04c0.05-0.03,0.1-0.06,0.15-0.11
				c0.05-0.05,0.1-0.11,0.15-0.18c0.04,0.03,0.09,0.07,0.13,0.12c0.04,0.05,0.08,0.1,0.11,0.16c0.03,0.06,0.05,0.13,0.05,0.22
				c0,0.13-0.04,0.23-0.11,0.31c-0.07,0.07-0.18,0.12-0.32,0.15l-0.03-0.09c0.09,0.03,0.17,0.07,0.25,0.11
				c0.08,0.05,0.15,0.11,0.21,0.17c0.06,0.07,0.12,0.15,0.17,0.25l-0.03,0.04v-1.64l0.02-0.01l0.15,0.09l0.02,0.13h0.2l0.1,0.17
				h-0.29v1.5L19.35,19.58z"/>
			<path class="st5" d="M19.35,19.6l-0.17-0.11c-0.06-0.1-0.13-0.18-0.21-0.25c-0.08-0.07-0.17-0.13-0.27-0.17
				c-0.1-0.04-0.21-0.07-0.33-0.08l-0.01,0l-0.14-0.37h0.03c0.07,0,0.15-0.01,0.22-0.02c0.07-0.01,0.13-0.03,0.18-0.05
				c0.05-0.02,0.09-0.05,0.12-0.09c0.03-0.04,0.04-0.08,0.04-0.13c0-0.03-0.01-0.07-0.02-0.09c-0.03,0.04-0.06,0.07-0.1,0.1
				c-0.06,0.05-0.13,0.09-0.19,0.12c-0.12,0.05-0.25,0.06-0.36,0.01c-0.05-0.02-0.09-0.06-0.12-0.1c-0.03-0.05-0.05-0.1-0.05-0.17
				c0-0.07,0.02-0.12,0.06-0.16c0.04-0.04,0.09-0.06,0.16-0.06c0.07,0,0.12,0.02,0.15,0.06c0.03,0.04,0.05,0.08,0.05,0.13
				c0,0.02,0,0.03,0,0.04c0.01-0.01,0.03-0.01,0.04-0.02c0.05-0.02,0.09-0.06,0.14-0.11c0.05-0.05,0.1-0.11,0.14-0.17l0.01-0.02
				l0.02,0.01c0.04,0.03,0.09,0.07,0.13,0.12c0.05,0.05,0.08,0.1,0.12,0.17c0.03,0.06,0.05,0.14,0.05,0.22
				c0,0.14-0.04,0.24-0.11,0.32c-0.04,0.04-0.1,0.08-0.17,0.11c0.02,0.01,0.04,0.02,0.06,0.04c0.08,0.05,0.15,0.11,0.22,0.18
				c0.04,0.04,0.08,0.09,0.11,0.14v-1.49l0.04-0.01l0.17,0.1l0.02,0.12h0.19l0.13,0.2h-0.31v1.5L19.35,19.6z M19.2,19.46l0.14,0.09
				v-1.5h0.28l-0.08-0.13h-0.21l-0.02-0.14l-0.13-0.08v1.52c0.01,0.02,0.02,0.03,0.03,0.05l0,0.01l-0.06,0.1
				C19.17,19.41,19.19,19.43,19.2,19.46z M18.38,18.95c0.12,0.01,0.23,0.04,0.33,0.08c0.1,0.04,0.2,0.1,0.28,0.17
				c0.06,0.05,0.11,0.11,0.16,0.17v-0.14c-0.04-0.07-0.09-0.14-0.14-0.19c-0.06-0.07-0.13-0.13-0.21-0.17
				c-0.03-0.02-0.06-0.03-0.09-0.05c-0.04,0.01-0.07,0.02-0.12,0.03l-0.02,0l-0.04-0.14l0.03,0.01c0.05,0.02,0.1,0.03,0.15,0.06
				c0.08-0.03,0.14-0.07,0.18-0.11c0.07-0.07,0.1-0.17,0.1-0.3c0-0.08-0.01-0.15-0.04-0.21c-0.03-0.06-0.07-0.11-0.11-0.16
				c-0.04-0.04-0.08-0.08-0.11-0.1c-0.05,0.06-0.09,0.12-0.14,0.16c-0.05,0.05-0.1,0.09-0.15,0.11c-0.02,0.01-0.05,0.02-0.07,0.03
				c0,0,0,0.01,0,0.01c-0.01,0.03-0.03,0.05-0.06,0.07l-0.01,0.01l-0.18-0.2l0.11,0.07c0,0,0.01,0.01,0.03,0.01
				c0.03,0,0.06,0.01,0.09,0c0-0.02,0.01-0.03,0.01-0.05c0-0.04-0.01-0.08-0.04-0.11c-0.03-0.03-0.07-0.04-0.12-0.04
				c-0.06,0-0.1,0.02-0.13,0.05c-0.03,0.03-0.05,0.08-0.05,0.14c0,0.06,0.01,0.11,0.04,0.15c0.03,0.04,0.06,0.07,0.11,0.09
				c0.1,0.05,0.22,0.04,0.33-0.01c0.06-0.03,0.12-0.06,0.18-0.11c0.04-0.03,0.07-0.06,0.1-0.1c-0.01-0.02-0.03-0.04-0.05-0.06
				l-0.04-0.04l0.2,0.01l-0.02,0.03c-0.01,0.02-0.03,0.04-0.04,0.06c0,0,0,0,0,0c0.02,0.03,0.03,0.08,0.03,0.12
				c0,0.06-0.02,0.11-0.05,0.16c-0.03,0.04-0.08,0.08-0.14,0.1c-0.06,0.03-0.12,0.05-0.19,0.06c-0.06,0.01-0.13,0.02-0.2,0.02
				L18.38,18.95z M18.6,18.78l0.01,0.04c0.02,0,0.04-0.01,0.06-0.01C18.64,18.8,18.62,18.79,18.6,18.78z M18.28,18.23l0.03,0.03
				c0.01-0.01,0.02-0.02,0.03-0.03C18.31,18.23,18.3,18.23,18.28,18.23z M18.78,18.13c0.01,0.01,0.01,0.02,0.02,0.02
				c0.01-0.01,0.01-0.01,0.01-0.02L18.78,18.13z"/>
		</g>
	</g>
	<g>
		<g>
			<path class="st5" d="M19.38,15.81l-0.15-0.1c-0.05-0.09-0.11-0.16-0.18-0.22c-0.06-0.06-0.14-0.11-0.22-0.15l0.07-0.19
				c0.06,0.04,0.12,0.08,0.17,0.14c0.06,0.06,0.11,0.14,0.16,0.24l-0.03,0.04v-1.22h-1.59l-0.1-0.16h1.94l0.1,0.16H19.4v1.45
				L19.38,15.81z M18.48,15.6c-0.09,0-0.18-0.02-0.26-0.05c-0.08-0.04-0.16-0.09-0.23-0.17c-0.07-0.08-0.14-0.18-0.2-0.32
				c-0.06-0.13-0.11-0.29-0.16-0.48l0.13-0.04c0.06,0.19,0.13,0.34,0.2,0.45c0.07,0.11,0.15,0.19,0.23,0.24
				c0.08,0.05,0.17,0.07,0.27,0.07c0.11,0,0.2-0.03,0.27-0.08c0.07-0.05,0.1-0.13,0.1-0.23c0-0.06-0.01-0.11-0.03-0.15
				c-0.02-0.04-0.05-0.07-0.09-0.08c-0.03-0.02-0.07-0.03-0.1-0.03c-0.03,0-0.05,0-0.07,0.01c-0.02,0.01-0.04,0.02-0.06,0.03
				c-0.01-0.07-0.03-0.13-0.06-0.19c-0.03-0.06-0.07-0.11-0.13-0.15c-0.06-0.04-0.14-0.08-0.24-0.1l0.35,0
				c0.04,0.03,0.07,0.06,0.11,0.11c0.04,0.04,0.07,0.09,0.09,0.15c0.03,0.06,0.04,0.12,0.04,0.18c0,0.08-0.02,0.14-0.06,0.19
				c-0.04,0.05-0.1,0.08-0.19,0.08c-0.08,0-0.14-0.02-0.19-0.07c-0.05-0.05-0.08-0.11-0.08-0.19c0-0.09,0.03-0.16,0.09-0.21
				c0.06-0.05,0.14-0.07,0.25-0.07c0.12,0,0.22,0.03,0.3,0.08c0.08,0.05,0.14,0.12,0.18,0.2c0.04,0.08,0.06,0.17,0.06,0.27
				c0,0.08-0.01,0.16-0.03,0.23c-0.02,0.07-0.05,0.13-0.1,0.18c-0.04,0.05-0.1,0.09-0.16,0.11C18.64,15.59,18.56,15.6,18.48,15.6z
				 M19.95,15.84l-0.18-0.08V14.6c-0.01-0.07-0.03-0.12-0.06-0.17c-0.03-0.05-0.06-0.07-0.12-0.07h-0.07l-0.1-0.16h0.15
				c0.04,0,0.07,0.01,0.1,0.03c0.03,0.02,0.06,0.06,0.08,0.1c0.02,0.05,0.04,0.11,0.05,0.18l-0.02,0.01
				c-0.01-0.06-0.01-0.12-0.02-0.18c0-0.06,0-0.1,0-0.13v-0.22l0.02-0.01l0.15,0.09l0.02,0.13h0.19l0.1,0.16h-0.28v1.48L19.95,15.84
				z"/>
			<path class="st5" d="M19.95,15.86l-0.19-0.09V14.6c-0.01-0.06-0.03-0.12-0.05-0.16c-0.02-0.04-0.06-0.06-0.1-0.06h-0.19v1.44
				l-0.04,0.01l-0.17-0.11c-0.05-0.09-0.11-0.16-0.17-0.22c-0.04-0.04-0.08-0.07-0.12-0.1c-0.01,0.02-0.03,0.04-0.04,0.06
				c-0.05,0.05-0.1,0.09-0.17,0.12c-0.06,0.03-0.14,0.04-0.22,0.04c-0.09,0-0.18-0.02-0.27-0.05c-0.08-0.04-0.16-0.1-0.23-0.18
				c-0.07-0.08-0.14-0.19-0.2-0.32c-0.06-0.13-0.12-0.29-0.16-0.48l0-0.02l0.16-0.04l0.01,0.02c0.06,0.19,0.12,0.34,0.19,0.45
				c0.07,0.11,0.14,0.19,0.22,0.23c0.08,0.05,0.17,0.07,0.26,0.07c0.11,0,0.19-0.02,0.26-0.07c0.06-0.05,0.09-0.12,0.09-0.21
				c0-0.06-0.01-0.1-0.03-0.14c-0.02-0.03-0.05-0.06-0.08-0.08c-0.02-0.01-0.04-0.02-0.05-0.02c0,0,0,0,0,0.01
				c0,0.08-0.02,0.15-0.07,0.2c-0.05,0.06-0.11,0.08-0.2,0.08c-0.08,0-0.15-0.03-0.21-0.08c-0.05-0.05-0.08-0.12-0.08-0.2
				c0-0.1,0.03-0.17,0.1-0.23c0.04-0.03,0.08-0.05,0.12-0.06c-0.01-0.01-0.03-0.03-0.05-0.04c-0.04-0.03-0.09-0.06-0.15-0.08H17.6
				l-0.12-0.2h2.1c0.04,0,0.08,0.01,0.11,0.04c0.02,0.02,0.04,0.04,0.06,0.06c0-0.03,0-0.05,0-0.07v-0.23l0.04-0.01l0.16,0.1
				l0.02,0.12h0.19l0.12,0.2h-0.3v1.48L19.95,15.86z M19.79,15.75l0.15,0.07v-1.48h0.27l-0.08-0.12h-0.2l-0.02-0.13l-0.13-0.08v0.2
				c0,0.02,0,0.07,0,0.13c0,0.01,0,0.02,0,0.03c0.01,0.04,0.03,0.09,0.03,0.14l0,0.01l-0.05,0.02c0,0.02,0.01,0.04,0.01,0.06
				L19.79,15.75z M19.24,15.7l0.14,0.09v-1.45h0.12l-0.08-0.12h-1.87l0.07,0.12h0.36l-0.09-0.02l0.51,0l0.01,0
				c0.01,0.01,0.02,0.01,0.03,0.02h0.79v1.14c0.01,0.02,0.02,0.03,0.03,0.05l0,0.01l-0.06,0.09C19.21,15.65,19.22,15.68,19.24,15.7z
				 M18.93,15.37c0.05,0.03,0.09,0.07,0.13,0.1c0.04,0.04,0.09,0.09,0.12,0.14v-0.13c-0.04-0.07-0.08-0.13-0.13-0.18
				c-0.02-0.03-0.05-0.05-0.07-0.07c0,0.01-0.01,0.03-0.01,0.04C18.96,15.31,18.95,15.34,18.93,15.37z M17.66,14.59
				c0.05,0.18,0.1,0.34,0.16,0.46c0.06,0.13,0.12,0.23,0.19,0.31c0.07,0.08,0.14,0.13,0.22,0.17c0.08,0.03,0.16,0.05,0.25,0.05
				c0.08,0,0.15-0.01,0.21-0.04c0.06-0.02,0.11-0.06,0.15-0.11c0.01-0.02,0.03-0.03,0.04-0.05c-0.02-0.01-0.04-0.02-0.06-0.03
				l-0.01-0.01l0.08-0.22l0.02,0.01c0.02,0.01,0.04,0.02,0.05,0.04c0.01-0.04,0.01-0.08,0.01-0.13c0-0.09-0.02-0.18-0.06-0.26
				c-0.04-0.08-0.1-0.14-0.17-0.19c-0.05-0.03-0.1-0.05-0.16-0.06c0.01,0.02,0.02,0.04,0.03,0.06c0.02,0.05,0.03,0.09,0.04,0.15
				c0.02,0,0.05,0.01,0.07,0.02c0.04,0.02,0.07,0.05,0.09,0.09c0.02,0.04,0.04,0.09,0.04,0.16c0,0.11-0.04,0.19-0.11,0.24
				c-0.07,0.05-0.16,0.08-0.28,0.08c-0.1,0-0.19-0.02-0.28-0.07c-0.09-0.05-0.17-0.13-0.24-0.24c-0.07-0.11-0.13-0.26-0.19-0.44
				L17.66,14.59z M18.99,15.2c0.03,0.03,0.06,0.05,0.09,0.08c0.04,0.04,0.07,0.08,0.1,0.13v-1.03h-0.72
				c0.01,0.02,0.03,0.03,0.04,0.05c0.01,0.02,0.03,0.04,0.04,0.05c0.08,0.01,0.14,0.03,0.2,0.07c0.08,0.05,0.15,0.12,0.19,0.21
				c0.04,0.09,0.06,0.18,0.06,0.28C19.01,15.1,19,15.15,18.99,15.2z M18.85,15.33c0.02,0.01,0.03,0.02,0.05,0.03
				c0.01-0.03,0.03-0.06,0.04-0.09c0.01-0.02,0.01-0.04,0.01-0.05c-0.02-0.01-0.03-0.02-0.05-0.03L18.85,15.33z M18.34,14.52
				c-0.05,0.01-0.09,0.03-0.13,0.06c-0.06,0.05-0.09,0.11-0.09,0.2c0,0.07,0.02,0.13,0.07,0.18c0.05,0.05,0.11,0.07,0.18,0.07
				c0.08,0,0.13-0.02,0.17-0.07c0.04-0.05,0.06-0.11,0.06-0.18c0,0,0-0.01,0-0.01c-0.02,0-0.05,0-0.07,0.01
				c-0.02,0.01-0.04,0.01-0.06,0.02l-0.02,0.01l0-0.03c-0.01-0.07-0.03-0.13-0.05-0.18C18.38,14.57,18.37,14.55,18.34,14.52z
				 M18.39,14.52c0.02,0.02,0.03,0.04,0.04,0.07c0.03,0.05,0.05,0.11,0.05,0.17c0.01-0.01,0.03-0.01,0.04-0.02
				c0.02-0.01,0.05-0.01,0.07-0.01c0,0,0,0,0,0c0-0.05-0.02-0.09-0.03-0.13c-0.01-0.03-0.03-0.06-0.04-0.08
				C18.48,14.51,18.43,14.51,18.39,14.52z M19.56,14.34h0.04c0.06,0,0.1,0.03,0.13,0.08c0.02,0.03,0.03,0.07,0.04,0.11l0-0.01
				c-0.01-0.05-0.01-0.1-0.01-0.15c0-0.01-0.01-0.02-0.01-0.03c-0.02-0.04-0.05-0.07-0.07-0.09c-0.03-0.02-0.06-0.03-0.09-0.03h-0.1
				L19.56,14.34z M18.21,14.38c0.03,0.01,0.06,0.03,0.08,0.05c0.03,0.02,0.05,0.04,0.07,0.06c0.05-0.01,0.1-0.01,0.15-0.01
				c-0.01-0.01-0.01-0.02-0.02-0.03c-0.02-0.03-0.05-0.05-0.07-0.07H18.21z"/>
		</g>
	</g>
	<g>
		<g>
			<g>
				<g>
					<g>
						
							<rect x="18.98" y="10.69" transform="matrix(0.7463 -0.6656 0.6656 0.7463 -2.1761 15.8994)" class="st6" width="1.58" height="0.22"/>
					</g>
				</g>
			</g>
		</g>
		<g>
			<g>
				<g>
					<g>
						
							<rect x="19.9" y="11.64" transform="matrix(0.8676 -0.4973 0.4973 0.8676 -3.154 11.655)" class="st6" width="0.81" height="0.22"/>
					</g>
				</g>
			</g>
		</g>
		<g>
			<g>
				<g>
					<g>
						
							<rect x="17.9" y="10.4" transform="matrix(0.5668 -0.8239 0.8239 0.5668 -0.5982 19.8921)" class="st6" width="1.44" height="0.22"/>
					</g>
				</g>
			</g>
		</g>
		<g>
			<g>
				<g>
					<g>
						
							<rect x="16.79" y="9.63" transform="matrix(0.4409 -0.8975 0.8975 0.4409 1.2993 21.5781)" class="st6" width="2.36" height="0.22"/>
					</g>
				</g>
			</g>
		</g>
		<g>
			<g>
				<g>
					<g>
						
							<rect x="16.15" y="9.32" transform="matrix(0.1907 -0.9816 0.9816 0.1907 4.4388 24.2389)" class="st6" width="1.53" height="0.22"/>
					</g>
				</g>
			</g>
		</g>
		<g>
			<g>
				<g>
					<g>
						
							<rect x="14.95" y="9.41" transform="matrix(0.0768 -0.997 0.997 0.0768 5.3895 24.8628)" class="st6" width="2.34" height="0.22"/>
					</g>
				</g>
			</g>
		</g>
		<g>
			<g>
				<g>
					<g>
						
							<rect x="11.99" y="9.9" transform="matrix(0.6659 -0.746 0.746 0.6659 -3.9348 12.5956)" class="st6" width="0.22" height="1.58"/>
					</g>
				</g>
			</g>
		</g>
		<g>
			<g>
				<g>
					<g>
						
							<rect x="11.58" y="11.26" transform="matrix(0.4969 -0.8678 0.8678 0.4969 -4.236 16.0127)" class="st6" width="0.22" height="0.81"/>
					</g>
				</g>
			</g>
		</g>
		<g>
			<g>
				<g>
					<g>
						
							<rect x="13.18" y="9.68" transform="matrix(0.8237 -0.567 0.567 0.8237 -3.5539 9.3713)" class="st6" width="0.22" height="1.44"/>
					</g>
				</g>
			</g>
		</g>
		<g>
			<g>
				<g>
					<g>
						
							<rect x="13.92" y="8.59" transform="matrix(0.8977 -0.4407 0.4407 0.8977 -2.869 7.1834)" class="st6" width="0.22" height="2.36"/>
					</g>
				</g>
			</g>
		</g>
		<g>
			<g>
				<g>
					<g>
						
							<rect x="14.97" y="8.75" transform="matrix(0.9816 -0.1907 0.1907 0.9816 -1.5384 3.051)" class="st6" width="0.22" height="1.53"/>
					</g>
				</g>
			</g>
		</g>
	</g>
	<g>
		<g>
			<g>
				<path class="st6" d="M19.87,12.14c-0.01,0-0.01,0-0.02,0c-0.13-0.01-0.28-0.03-0.45-0.04c-0.05,0-0.1,0-0.16-0.01
					c-0.91-0.69-2.04-1.11-3.27-1.11c-1.23,0-2.37,0.41-3.28,1.11c-0.11,0-0.22,0.01-0.34,0.01c-0.12,0.01-0.24,0.01-0.36,0.02
					c1.01-0.99,2.4-1.6,3.93-1.6C17.46,10.53,18.85,11.14,19.87,12.14z"/>
			</g>
		</g>
	</g>
	<g>
		<g>
			<g>
				<path class="st7" d="M19.25,12.09c-0.34-0.01-0.69,0-1.03,0.05c-0.41,0.05-0.82,0.15-1.2,0.3c-0.2,0.08-0.4,0.18-0.59,0.29
					c-0.1,0.06-0.19,0.12-0.28,0.18c-0.02,0.02-0.05,0.03-0.07,0.05c-0.02,0.01-0.03,0.03-0.04,0.04c-0.04,0.02-0.09-0.01-0.12-0.03
					c-0.01-0.01-0.02-0.02-0.03-0.03c-0.1-0.09-0.2-0.16-0.31-0.23c-0.19-0.12-0.4-0.21-0.61-0.29c-0.3-0.11-0.62-0.19-0.94-0.24
					c-0.44-0.07-0.88-0.1-1.32-0.09c0.91-0.69,2.04-1.11,3.28-1.11C17.2,10.99,18.34,11.4,19.25,12.09z"/>
			</g>
		</g>
	</g>
	<g>
		<g>
			<path class="st1" d="M12.82,25.23v-0.84h0.65v0.12h-0.51v0.23h0.46v0.12h-0.46v0.25h0.52v0.12H12.82z"/>
		</g>
		<g>
			<path class="st1" d="M13.95,25.24c-0.05,0-0.09,0-0.13-0.01c-0.04-0.01-0.08-0.02-0.11-0.05c-0.03-0.02-0.06-0.05-0.08-0.08
				c-0.02-0.03-0.03-0.07-0.03-0.12c0,0,0-0.01,0-0.01c0,0,0-0.01,0-0.01h0.14c0,0,0,0.01,0,0.01c0,0,0,0.01,0,0.01
				c0,0.03,0.01,0.06,0.03,0.08c0.02,0.02,0.04,0.04,0.08,0.05c0.03,0.01,0.07,0.02,0.11,0.02c0.02,0,0.04,0,0.07,0
				c0.02,0,0.04-0.01,0.06-0.01c0.02-0.01,0.03-0.01,0.05-0.02c0.01-0.01,0.02-0.02,0.03-0.03c0.01-0.01,0.01-0.03,0.01-0.05
				c0-0.03-0.01-0.05-0.02-0.06c-0.02-0.02-0.04-0.03-0.06-0.04c-0.03-0.01-0.05-0.02-0.09-0.03c-0.03-0.01-0.07-0.02-0.1-0.03
				c-0.03-0.01-0.07-0.02-0.1-0.03c-0.03-0.01-0.06-0.03-0.09-0.04c-0.03-0.02-0.05-0.04-0.06-0.07c-0.02-0.03-0.02-0.06-0.02-0.1
				c0-0.04,0.01-0.07,0.02-0.1c0.02-0.03,0.04-0.05,0.07-0.07c0.03-0.02,0.06-0.03,0.1-0.04c0.04-0.01,0.09-0.01,0.14-0.01
				c0.04,0,0.09,0,0.12,0.01c0.04,0.01,0.07,0.02,0.1,0.04s0.05,0.04,0.07,0.07c0.02,0.03,0.02,0.07,0.02,0.11v0.01h-0.14v-0.02
				c0-0.03-0.01-0.05-0.02-0.07c-0.02-0.02-0.04-0.03-0.06-0.04c-0.03-0.01-0.06-0.01-0.1-0.01c-0.04,0-0.08,0-0.11,0.01
				c-0.03,0.01-0.05,0.02-0.07,0.04c-0.02,0.02-0.02,0.03-0.02,0.05c0,0.02,0.01,0.04,0.02,0.06c0.02,0.02,0.04,0.03,0.06,0.04
				c0.03,0.01,0.05,0.02,0.09,0.03c0.03,0.01,0.06,0.02,0.1,0.03c0.03,0.01,0.07,0.02,0.1,0.03s0.06,0.03,0.09,0.05
				c0.03,0.02,0.05,0.04,0.06,0.07c0.02,0.03,0.02,0.06,0.02,0.1c0,0.06-0.02,0.11-0.05,0.15c-0.03,0.04-0.07,0.07-0.12,0.08
				C14.08,25.24,14.02,25.24,13.95,25.24z"/>
		</g>
		<g>
			<path class="st1" d="M14.66,25.23v-0.72h-0.28v-0.12h0.69v0.12H14.8v0.72H14.66z"/>
		</g>
		<g>
			<path class="st1" d="M15.21,25.23v-0.84h0.32c0.09,0,0.16,0.01,0.22,0.04c0.06,0.03,0.11,0.08,0.14,0.14
				c0.03,0.06,0.05,0.14,0.05,0.24c0,0.1-0.02,0.17-0.05,0.24c-0.03,0.06-0.08,0.11-0.14,0.14c-0.06,0.03-0.13,0.04-0.22,0.04H15.21
				z M15.34,25.11h0.19c0.04,0,0.08-0.01,0.12-0.02c0.03-0.01,0.06-0.03,0.09-0.05c0.02-0.02,0.04-0.05,0.05-0.09
				c0.01-0.04,0.02-0.08,0.02-0.13V24.8c0-0.05-0.01-0.09-0.02-0.13c-0.01-0.04-0.03-0.07-0.05-0.09c-0.02-0.02-0.05-0.04-0.09-0.05
				s-0.07-0.02-0.12-0.02h-0.19V25.11z"/>
		</g>
		<g>
			<path class="st1" d="M16.06,25.23v-0.14h0.14v0.14H16.06z"/>
		</g>
		<g>
			<path class="st1" d="M16.62,25.23v-0.04c0-0.04,0.01-0.07,0.02-0.1s0.03-0.06,0.05-0.08c0.02-0.02,0.05-0.05,0.07-0.07
				c0.03-0.02,0.06-0.04,0.08-0.06c0.04-0.03,0.07-0.05,0.1-0.08c0.03-0.03,0.06-0.06,0.08-0.09c0.02-0.03,0.03-0.07,0.03-0.1
				c0-0.02-0.01-0.04-0.02-0.06c-0.01-0.02-0.03-0.03-0.05-0.05c-0.02-0.01-0.05-0.02-0.08-0.02c-0.04,0-0.07,0.01-0.09,0.02
				c-0.02,0.01-0.04,0.03-0.05,0.05c-0.01,0.02-0.02,0.05-0.02,0.08v0.05h-0.13c0,0,0-0.01,0-0.02c0-0.01,0-0.02,0-0.03
				c0-0.06,0.01-0.11,0.04-0.15c0.03-0.04,0.06-0.06,0.11-0.08s0.09-0.03,0.15-0.03c0.05,0,0.09,0.01,0.13,0.02
				c0.03,0.01,0.06,0.03,0.08,0.06c0.02,0.02,0.04,0.05,0.05,0.08c0.01,0.03,0.01,0.06,0.01,0.08c0,0.04-0.01,0.07-0.02,0.11
				c-0.01,0.03-0.03,0.06-0.06,0.09c-0.02,0.03-0.05,0.05-0.08,0.08c-0.03,0.03-0.07,0.05-0.1,0.08c-0.02,0.02-0.04,0.03-0.07,0.05
				c-0.02,0.02-0.04,0.03-0.06,0.05c-0.02,0.02-0.03,0.03-0.03,0.05h0.42v0.12H16.62z"/>
		</g>
		<g>
			<path class="st1" d="M17.61,25.24c-0.04,0-0.09-0.01-0.12-0.02s-0.07-0.04-0.09-0.07c-0.02-0.03-0.04-0.08-0.06-0.13
				c-0.01-0.06-0.02-0.13-0.02-0.21c0-0.09,0.01-0.16,0.02-0.21s0.03-0.1,0.06-0.13c0.02-0.03,0.06-0.06,0.09-0.07
				s0.08-0.02,0.12-0.02c0.05,0,0.09,0.01,0.12,0.02c0.04,0.01,0.07,0.04,0.09,0.07c0.02,0.03,0.04,0.08,0.06,0.13
				c0.01,0.06,0.02,0.13,0.02,0.21c0,0.09-0.01,0.16-0.02,0.21c-0.01,0.06-0.03,0.1-0.06,0.13c-0.02,0.03-0.06,0.06-0.09,0.07
				C17.69,25.24,17.65,25.24,17.61,25.24z M17.61,25.14c0.04,0,0.08-0.01,0.1-0.03c0.02-0.02,0.04-0.06,0.05-0.1
				c0.01-0.04,0.01-0.1,0.01-0.16v-0.06c0-0.07,0-0.12-0.01-0.17c-0.01-0.04-0.02-0.08-0.05-0.1c-0.02-0.02-0.06-0.03-0.1-0.03
				c-0.04,0-0.07,0.01-0.1,0.03c-0.02,0.02-0.04,0.06-0.05,0.1c-0.01,0.04-0.01,0.1-0.01,0.16v0.06c0,0.07,0,0.12,0.01,0.16
				c0.01,0.04,0.02,0.08,0.05,0.1C17.53,25.13,17.56,25.14,17.61,25.14z"/>
		</g>
		<g>
			<path class="st1" d="M18.02,25.23v-0.04c0-0.04,0.01-0.07,0.02-0.1c0.01-0.03,0.03-0.06,0.05-0.08c0.02-0.02,0.05-0.05,0.07-0.07
				c0.03-0.02,0.06-0.04,0.08-0.06c0.04-0.03,0.07-0.05,0.1-0.08c0.03-0.03,0.06-0.06,0.08-0.09c0.02-0.03,0.03-0.07,0.03-0.1
				c0-0.02-0.01-0.04-0.02-0.06c-0.01-0.02-0.03-0.03-0.05-0.05c-0.02-0.01-0.05-0.02-0.08-0.02c-0.04,0-0.07,0.01-0.09,0.02
				c-0.02,0.01-0.04,0.03-0.05,0.05c-0.01,0.02-0.02,0.05-0.02,0.08v0.05h-0.13c0,0,0-0.01,0-0.02s0-0.02,0-0.03
				c0-0.06,0.01-0.11,0.04-0.15c0.03-0.04,0.06-0.06,0.11-0.08c0.05-0.02,0.09-0.03,0.15-0.03c0.05,0,0.09,0.01,0.13,0.02
				c0.03,0.01,0.06,0.03,0.08,0.06s0.04,0.05,0.05,0.08c0.01,0.03,0.01,0.06,0.01,0.08c0,0.04-0.01,0.07-0.02,0.11
				c-0.01,0.03-0.03,0.06-0.06,0.09c-0.02,0.03-0.05,0.05-0.08,0.08c-0.03,0.03-0.07,0.05-0.1,0.08c-0.02,0.02-0.04,0.03-0.07,0.05
				c-0.02,0.02-0.04,0.03-0.06,0.05c-0.02,0.02-0.03,0.03-0.03,0.05h0.42v0.12H18.02z"/>
		</g>
		<g>
			<path class="st1" d="M19.01,25.24c-0.06,0-0.11-0.01-0.15-0.03c-0.04-0.02-0.08-0.05-0.1-0.09c-0.02-0.04-0.04-0.09-0.04-0.15
				h0.13c0,0.04,0.01,0.07,0.02,0.09c0.01,0.03,0.03,0.05,0.06,0.06c0.02,0.01,0.05,0.02,0.08,0.02c0.03,0,0.06-0.01,0.08-0.02
				c0.02-0.01,0.04-0.03,0.06-0.06c0.01-0.03,0.02-0.06,0.02-0.1c0-0.04-0.01-0.07-0.02-0.09c-0.01-0.02-0.03-0.04-0.05-0.05
				c-0.02-0.01-0.05-0.02-0.08-0.02c-0.02,0-0.04,0-0.06,0.01c-0.02,0.01-0.04,0.02-0.05,0.03c-0.01,0.01-0.03,0.03-0.04,0.04
				l-0.12-0.02l0.03-0.46h0.48v0.12h-0.37l-0.02,0.23c0.01-0.01,0.03-0.02,0.04-0.03c0.02-0.01,0.03-0.02,0.06-0.02
				c0.02-0.01,0.05-0.01,0.07-0.01c0.05,0,0.09,0.01,0.13,0.03s0.07,0.05,0.09,0.09c0.02,0.04,0.03,0.09,0.03,0.15
				c0,0.06-0.01,0.11-0.04,0.16c-0.02,0.04-0.06,0.08-0.1,0.1C19.12,25.23,19.07,25.24,19.01,25.24z"/>
		</g>
	</g>
	<g>
		<g>
			<g>
				<path class="st5" d="M4.09,14.5l-1.89-0.32l0.06-0.34l1.26-0.62c0.01-0.01,0.03-0.02,0.05-0.03c0.02-0.01,0.04-0.02,0.06-0.03
					c0.02-0.01,0.04-0.01,0.05-0.01l0-0.01c-0.03,0-0.05-0.01-0.07-0.01c-0.02,0-0.05-0.01-0.07-0.01l-1.12-0.19l0.06-0.34
					l1.89,0.32L4.3,13.24l-1.26,0.62c-0.02,0.01-0.05,0.02-0.09,0.04c-0.04,0.01-0.06,0.02-0.07,0.03l0,0.01
					c0.02,0,0.05,0.01,0.07,0.01c0.02,0,0.05,0.01,0.08,0.01l1.13,0.19L4.09,14.5z"/>
			</g>
			<g>
				<path class="st5" d="M4.39,12.74L2.8,11.43l0.14-0.44L5,10.89l-0.12,0.37l-0.44,0.02l-0.28,0.83l0.34,0.27L4.39,12.74z
					 M3.91,11.91l0.2-0.61l-0.55,0.02c-0.02,0-0.05,0-0.08,0c-0.03,0-0.06,0-0.1,0c-0.04,0-0.07,0-0.11,0s-0.07,0-0.1,0l0,0.01
					c0.03,0.02,0.07,0.05,0.11,0.08c0.04,0.03,0.08,0.06,0.12,0.09c0.04,0.03,0.06,0.05,0.08,0.07L3.91,11.91z"/>
			</g>
			<g>
				<path class="st5" d="M5.09,10.75L3.36,9.9l0.16-0.33l1.44,0.71l0.42-0.86l0.28,0.14L5.09,10.75z"/>
			</g>
			<g>
				<path class="st5" d="M5.77,9.38L4.18,8.3l0.43-0.64C4.72,7.5,4.84,7.39,4.97,7.31C5.11,7.23,5.26,7.2,5.41,7.22
					c0.16,0.02,0.33,0.09,0.51,0.21c0.18,0.12,0.31,0.25,0.39,0.4c0.08,0.14,0.1,0.29,0.08,0.44C6.37,8.42,6.31,8.58,6.2,8.74
					L5.77,9.38z M5.72,8.9l0.23-0.34c0.05-0.07,0.08-0.15,0.1-0.22c0.02-0.07,0.02-0.14,0-0.21C6.03,8.07,6,8,5.95,7.94
					c-0.05-0.06-0.12-0.12-0.2-0.18L5.69,7.73C5.61,7.67,5.52,7.63,5.45,7.6C5.37,7.58,5.3,7.57,5.23,7.58
					C5.16,7.59,5.09,7.62,5.03,7.66c-0.06,0.04-0.12,0.1-0.17,0.18L4.64,8.17L5.72,8.9z"/>
			</g>
			<g>
				<path class="st5" d="M6.74,7.93l-0.9-1.85l0.31-0.34L8.07,6.5L7.8,6.79L7.4,6.62L6.8,7.27l0.2,0.39L6.74,7.93z M6.65,6.97
					L7.09,6.5L6.58,6.29C6.56,6.28,6.53,6.27,6.51,6.26C6.48,6.25,6.45,6.23,6.41,6.22C6.38,6.2,6.35,6.19,6.32,6.17
					C6.28,6.16,6.25,6.14,6.22,6.13L6.21,6.14c0.02,0.03,0.04,0.07,0.07,0.12C6.31,6.3,6.33,6.34,6.35,6.38
					c0.02,0.04,0.04,0.07,0.05,0.1L6.65,6.97z"/>
			</g>
			<g>
				<path class="st5" d="M8.19,6.4L7,4.89l0.27-0.21l1.34,0.39c0.01,0,0.03,0.01,0.05,0.02S8.72,5.1,8.74,5.1
					c0.02,0.01,0.04,0.01,0.05,0.02L8.8,5.12C8.78,5.1,8.76,5.08,8.75,5.06S8.72,5.02,8.7,5L8,4.11l0.28-0.22L9.47,5.4L9.19,5.61
					L7.84,5.22C7.82,5.22,7.79,5.21,7.75,5.19C7.71,5.18,7.69,5.17,7.68,5.16L7.67,5.17C7.68,5.19,7.7,5.21,7.71,5.23
					s0.03,0.04,0.05,0.06l0.71,0.9L8.19,6.4z"/>
			</g>
			<g>
				<path class="st5" d="M10.54,4.82C10.28,4.96,10.04,5,9.82,4.94C9.6,4.87,9.41,4.69,9.24,4.39c-0.11-0.2-0.16-0.38-0.16-0.55
					c0-0.17,0.05-0.31,0.14-0.45c0.09-0.13,0.23-0.25,0.41-0.34c0.11-0.06,0.22-0.1,0.33-0.13c0.11-0.03,0.21-0.03,0.31-0.02
					c0.1,0.01,0.19,0.04,0.27,0.1c0.08,0.05,0.15,0.13,0.21,0.24l-0.33,0.18c-0.03-0.05-0.07-0.1-0.11-0.13
					c-0.05-0.03-0.1-0.05-0.16-0.05c-0.06-0.01-0.12,0-0.18,0.01C9.91,3.26,9.85,3.28,9.79,3.32C9.7,3.36,9.63,3.42,9.57,3.48
					c-0.06,0.06-0.09,0.13-0.11,0.2c-0.02,0.07-0.02,0.15,0,0.24C9.47,4,9.51,4.09,9.56,4.19l0.03,0.05
					c0.07,0.13,0.15,0.23,0.23,0.3C9.9,4.6,10,4.63,10.09,4.63c0.1,0,0.2-0.03,0.32-0.09c0.1-0.05,0.17-0.11,0.23-0.18
					c0.06-0.07,0.09-0.14,0.1-0.22c0.01-0.08,0-0.16-0.05-0.24l-0.01-0.02l-0.54,0.29L10,3.9l0.86-0.46l0.49,0.91l-0.23,0.12
					L10.99,4.3c-0.02,0.08-0.05,0.14-0.09,0.21c-0.04,0.06-0.09,0.12-0.15,0.17S10.62,4.77,10.54,4.82z"/>
			</g>
			<g>
				<path class="st5" d="M11.47,4.29l0.11-2.06l0.44-0.14l1.31,1.59L12.95,3.8l-0.27-0.34l-0.83,0.28l-0.02,0.44L11.47,4.29z
					 M11.86,3.41l0.61-0.2l-0.35-0.43c-0.01-0.02-0.03-0.04-0.05-0.06c-0.02-0.02-0.04-0.05-0.06-0.08
					c-0.02-0.03-0.04-0.06-0.06-0.09c-0.02-0.03-0.04-0.06-0.06-0.08l-0.01,0c0,0.04,0,0.08,0,0.13s0,0.1,0,0.14
					c0,0.05,0,0.08,0,0.11L11.86,3.41z"/>
			</g>
			<g>
				<path class="st5" d="M14.03,3.57l-0.3-1.9l0.36-0.06l0.3,1.9L14.03,3.57z"/>
			</g>
			<g>
				<path class="st5" d="M14.76,3.44l-0.07-1.92l0.77-0.03c0.19-0.01,0.36,0.02,0.5,0.08c0.14,0.06,0.25,0.16,0.33,0.3
					c0.08,0.14,0.12,0.32,0.13,0.54c0.01,0.22-0.02,0.4-0.09,0.54c-0.07,0.14-0.17,0.25-0.31,0.33c-0.14,0.07-0.3,0.12-0.49,0.12
					L14.76,3.44z M15.11,3.12l0.41-0.02c0.09,0,0.17-0.02,0.24-0.05c0.07-0.03,0.12-0.07,0.17-0.12c0.04-0.05,0.08-0.12,0.1-0.2
					c0.02-0.08,0.03-0.17,0.03-0.27l0-0.06c0-0.1-0.02-0.19-0.05-0.27c-0.03-0.08-0.07-0.14-0.11-0.19
					c-0.05-0.05-0.11-0.09-0.18-0.11c-0.07-0.02-0.15-0.03-0.24-0.03l-0.41,0.02L15.11,3.12z"/>
			</g>
			<g>
				<path class="st5" d="M16.72,3.4l0.24-1.9l1.49,0.19L18.4,1.99l-1.12-0.14l-0.06,0.47l1,0.13l-0.04,0.31l-1-0.13l-0.06,0.51
					l1.14,0.14l-0.04,0.31L16.72,3.4z"/>
			</g>
			<g>
				<path class="st5" d="M18.32,3.6l1.26-1.63l0.44,0.13l0.18,2.05l-0.38-0.11L19.79,3.6l-0.84-0.25L18.68,3.7L18.32,3.6z
					 M19.14,3.09l0.62,0.18l-0.04-0.55c0-0.02,0-0.05-0.01-0.08c0-0.03,0-0.06,0-0.1c0-0.04,0-0.07,0-0.11c0-0.04,0-0.07,0-0.1
					l-0.01,0c-0.02,0.03-0.05,0.07-0.08,0.11c-0.03,0.04-0.06,0.08-0.08,0.12c-0.03,0.04-0.05,0.07-0.06,0.09L19.14,3.09z"/>
			</g>
			<g>
				<path class="st5" d="M20.33,4.23l0.81-1.74l0.33,0.15L20.8,4.1l0.87,0.41l-0.13,0.29L20.33,4.23z"/>
			</g>
			<g>
				<path class="st5" d="M22.74,5.62c-0.09-0.06-0.16-0.13-0.23-0.21c-0.07-0.08-0.11-0.16-0.15-0.24C22.33,5.09,22.32,5,22.33,4.92
					c0.01-0.08,0.04-0.17,0.1-0.25c0.01-0.01,0.01-0.02,0.02-0.03c0.01-0.01,0.01-0.02,0.02-0.02l0.3,0.21c0,0-0.01,0.01-0.01,0.02
					c-0.01,0.01-0.01,0.01-0.02,0.02c-0.04,0.05-0.05,0.1-0.05,0.16c0,0.06,0.03,0.11,0.07,0.17c0.04,0.06,0.1,0.11,0.17,0.17
					c0.05,0.04,0.1,0.06,0.14,0.09c0.04,0.02,0.08,0.04,0.12,0.05c0.04,0.01,0.07,0.01,0.1,0.01c0.03,0,0.06-0.01,0.08-0.02
					c0.02-0.01,0.04-0.03,0.06-0.05c0.03-0.04,0.04-0.09,0.04-0.14c-0.01-0.05-0.03-0.1-0.06-0.15c-0.03-0.05-0.07-0.11-0.12-0.17
					c-0.05-0.06-0.1-0.12-0.14-0.18C23.08,4.74,23.04,4.68,23,4.61s-0.07-0.13-0.1-0.2c-0.02-0.07-0.03-0.13-0.02-0.21
					c0.01-0.07,0.04-0.14,0.09-0.21c0.05-0.07,0.11-0.13,0.18-0.16c0.07-0.03,0.15-0.05,0.23-0.04c0.08,0.01,0.17,0.03,0.26,0.06
					c0.09,0.04,0.18,0.09,0.27,0.15c0.08,0.06,0.16,0.12,0.22,0.2c0.06,0.07,0.11,0.14,0.14,0.22c0.03,0.08,0.04,0.16,0.03,0.24
					c-0.01,0.08-0.04,0.16-0.1,0.24l-0.02,0.03l-0.29-0.21L23.9,4.7c0.03-0.04,0.04-0.09,0.04-0.14c0-0.05-0.03-0.1-0.06-0.15
					c-0.04-0.05-0.09-0.1-0.15-0.14c-0.07-0.05-0.13-0.08-0.19-0.11c-0.06-0.02-0.11-0.03-0.15-0.02c-0.04,0.01-0.08,0.03-0.1,0.06
					c-0.03,0.04-0.04,0.08-0.03,0.12c0.01,0.05,0.03,0.09,0.06,0.14c0.03,0.05,0.07,0.11,0.12,0.16c0.05,0.06,0.1,0.12,0.14,0.18
					c0.05,0.06,0.09,0.12,0.14,0.19c0.04,0.06,0.07,0.13,0.1,0.2s0.03,0.14,0.02,0.21s-0.04,0.14-0.09,0.21
					c-0.08,0.12-0.18,0.19-0.29,0.22c-0.11,0.03-0.22,0.03-0.35-0.01C22.99,5.77,22.87,5.71,22.74,5.62z"/>
			</g>
			<g>
				<path class="st5" d="M24.2,6.85c-0.14-0.14-0.24-0.28-0.29-0.43c-0.05-0.15-0.05-0.3,0-0.45s0.16-0.32,0.32-0.48
					c0.24-0.24,0.47-0.36,0.7-0.36s0.45,0.1,0.66,0.31c0.11,0.11,0.2,0.23,0.25,0.36c0.05,0.13,0.07,0.26,0.05,0.39
					c-0.02,0.13-0.09,0.26-0.21,0.38L25.41,6.3c0.07-0.07,0.11-0.14,0.12-0.21c0.02-0.07,0.01-0.15-0.02-0.22
					c-0.03-0.07-0.07-0.14-0.14-0.21c-0.09-0.09-0.18-0.15-0.28-0.17c-0.09-0.02-0.19-0.01-0.29,0.03c-0.1,0.04-0.2,0.11-0.3,0.22
					l-0.04,0.04c-0.1,0.1-0.17,0.2-0.21,0.3c-0.04,0.1-0.05,0.19-0.02,0.29c0.03,0.09,0.08,0.18,0.18,0.27
					c0.07,0.07,0.14,0.12,0.22,0.14c0.07,0.03,0.15,0.03,0.22,0.01c0.07-0.02,0.14-0.06,0.21-0.13l0.26,0.25
					c-0.12,0.12-0.24,0.19-0.37,0.22c-0.13,0.03-0.26,0.01-0.39-0.04C24.43,7.05,24.31,6.96,24.2,6.85z"/>
			</g>
			<g>
				<path class="st5" d="M24.99,7.62l1.54-1.14l0.22,0.29l-0.63,0.46l0.53,0.72l0.63-0.46l0.22,0.29l-1.54,1.14l-0.22-0.29
					l0.66-0.49l-0.53-0.72l-0.66,0.49L24.99,7.62z"/>
			</g>
			<g>
				<path class="st5" d="M26.52,10.02c-0.09-0.18-0.14-0.35-0.14-0.51c0-0.16,0.04-0.31,0.14-0.45c0.1-0.14,0.24-0.26,0.44-0.36
					c0.2-0.1,0.38-0.15,0.55-0.15c0.17,0,0.31,0.05,0.44,0.15c0.13,0.1,0.24,0.23,0.33,0.41c0.09,0.18,0.14,0.35,0.14,0.51
					c0,0.16-0.04,0.31-0.14,0.45c-0.09,0.14-0.24,0.26-0.44,0.36c-0.2,0.1-0.38,0.15-0.55,0.15s-0.31-0.05-0.44-0.15
					C26.72,10.34,26.61,10.2,26.52,10.02z M26.79,9.88c0.04,0.09,0.1,0.16,0.15,0.21c0.06,0.05,0.12,0.09,0.2,0.11
					c0.07,0.02,0.15,0.02,0.23,0.01c0.08-0.01,0.17-0.04,0.27-0.09l0.05-0.03c0.1-0.05,0.17-0.1,0.24-0.17
					c0.06-0.06,0.1-0.13,0.13-0.2c0.03-0.07,0.03-0.14,0.03-0.22c-0.01-0.08-0.04-0.16-0.08-0.25c-0.04-0.09-0.1-0.16-0.15-0.21
					c-0.06-0.05-0.12-0.09-0.2-0.11c-0.07-0.02-0.15-0.02-0.23-0.01c-0.08,0.02-0.18,0.05-0.27,0.1L27.1,9.06
					c-0.09,0.05-0.17,0.1-0.23,0.16c-0.06,0.06-0.1,0.12-0.13,0.19c-0.03,0.07-0.03,0.14-0.03,0.22C26.72,9.71,26.75,9.8,26.79,9.88
					z"/>
			</g>
			<g>
				<path class="st5" d="M27.32,11.96c-0.06-0.19-0.08-0.37-0.05-0.53c0.02-0.16,0.09-0.3,0.21-0.42c0.12-0.12,0.28-0.21,0.5-0.28
					c0.22-0.07,0.4-0.09,0.57-0.06c0.16,0.03,0.3,0.1,0.41,0.22c0.11,0.12,0.2,0.27,0.26,0.46c0.06,0.19,0.08,0.37,0.06,0.53
					c-0.02,0.16-0.09,0.3-0.21,0.42c-0.12,0.12-0.28,0.21-0.5,0.28c-0.21,0.07-0.4,0.09-0.57,0.06c-0.16-0.03-0.3-0.1-0.41-0.22
					C27.47,12.31,27.38,12.16,27.32,11.96z M27.61,11.87c0.03,0.09,0.07,0.17,0.12,0.23c0.05,0.06,0.11,0.11,0.18,0.14
					c0.07,0.03,0.14,0.05,0.23,0.05c0.09,0,0.18-0.02,0.28-0.05l0.06-0.02c0.1-0.03,0.19-0.07,0.26-0.12
					c0.07-0.05,0.12-0.11,0.16-0.17c0.04-0.06,0.06-0.14,0.06-0.22c0-0.08-0.01-0.16-0.04-0.26c-0.03-0.09-0.07-0.17-0.12-0.23
					c-0.05-0.06-0.11-0.11-0.18-0.14c-0.07-0.03-0.14-0.05-0.23-0.05c-0.09,0-0.18,0.02-0.28,0.05l-0.06,0.02
					c-0.1,0.03-0.19,0.07-0.26,0.12c-0.07,0.05-0.12,0.11-0.16,0.17c-0.04,0.06-0.06,0.14-0.06,0.22
					C27.57,11.69,27.58,11.78,27.61,11.87z"/>
			</g>
			<g>
				<path class="st5" d="M27.68,13.15l1.89-0.32l0.06,0.36l-1.58,0.27l0.16,0.95l-0.31,0.05L27.68,13.15z"/>
			</g>
		</g>
		<g>
			<g>
				<path class="st5" d="M4.54,24.18l1.2-0.9l0.14,0.19l-0.35,1.1c0,0.01-0.01,0.03-0.01,0.05c-0.01,0.02-0.01,0.04-0.02,0.05
					c-0.01,0.02-0.01,0.03-0.02,0.04l0.01,0.01c0.02-0.01,0.03-0.03,0.05-0.04c0.02-0.01,0.03-0.02,0.05-0.04l0.75-0.56l0.14,0.19
					l-1.2,0.9l-0.13-0.18l0.35-1.12c0.01-0.02,0.02-0.04,0.03-0.07s0.02-0.05,0.03-0.07l-0.01-0.01c-0.02,0.01-0.03,0.02-0.05,0.04
					c-0.02,0.01-0.03,0.03-0.05,0.04l-0.76,0.57L4.54,24.18z"/>
			</g>
			<g>
				<path class="st5" d="M5.46,25.39l1.48-0.61l0.21,0.22l-0.68,1.45L6.3,26.27l0.16-0.33l-0.48-0.51l-0.34,0.14L5.46,25.39z
					 M6.18,25.34l0.37,0.39l0.2-0.42c0.01-0.01,0.02-0.03,0.03-0.05c0.01-0.02,0.02-0.05,0.04-0.07c0.01-0.03,0.03-0.05,0.04-0.08
					c0.01-0.03,0.03-0.05,0.04-0.07l-0.01-0.01c-0.03,0.01-0.06,0.03-0.09,0.04c-0.04,0.02-0.07,0.03-0.1,0.05
					c-0.03,0.02-0.06,0.03-0.08,0.04L6.18,25.34z"/>
			</g>
			<g>
				<path class="st5" d="M6.68,26.62l1-1.11l0.18,0.16l-1,1.11L6.68,26.62z"/>
			</g>
			<g>
				<path class="st5" d="M7.17,27.07l0.9-1.19l0.45,0.34c0.12,0.09,0.21,0.19,0.26,0.3c0.05,0.11,0.07,0.22,0.05,0.34
					c-0.02,0.12-0.08,0.25-0.19,0.39c-0.1,0.14-0.21,0.23-0.33,0.28c-0.11,0.05-0.23,0.07-0.35,0.05c-0.12-0.02-0.24-0.08-0.36-0.17
					L7.17,27.07z M7.49,27.05l0.26,0.2c0.06,0.05,0.12,0.08,0.18,0.1c0.06,0.02,0.12,0.03,0.18,0.02c0.06-0.01,0.12-0.03,0.17-0.07
					c0.06-0.04,0.11-0.09,0.16-0.16l0.03-0.04c0.05-0.07,0.09-0.14,0.12-0.2c0.02-0.06,0.03-0.13,0.02-0.18
					c-0.01-0.06-0.03-0.11-0.06-0.17c-0.04-0.05-0.08-0.1-0.14-0.15l-0.26-0.2L7.49,27.05z"/>
			</g>
			<g>
				<path class="st5" d="M8.37,27.96l1.26-0.99l0.27,0.16l-0.26,1.58l-0.22-0.13l0.06-0.37l-0.6-0.36l-0.29,0.23L8.37,27.96z
					 M9.04,27.72L9.51,28l0.08-0.46c0-0.01,0.01-0.03,0.01-0.06c0-0.02,0.01-0.05,0.02-0.08c0.01-0.03,0.01-0.06,0.02-0.09
					c0.01-0.03,0.01-0.06,0.02-0.08l-0.01-0.01c-0.02,0.02-0.05,0.04-0.08,0.07c-0.03,0.03-0.06,0.05-0.09,0.07
					c-0.03,0.02-0.05,0.04-0.07,0.06L9.04,27.72z"/>
			</g>
			<g>
				<path class="st5" d="M9.9,28.84l0.6-1.37l0.21,0.09l0.24,1.13c0,0.01,0.01,0.03,0.01,0.05c0,0.02,0.01,0.04,0.01,0.06
					c0,0.02,0,0.03,0,0.04l0.01,0c0.01-0.02,0.02-0.04,0.03-0.06c0.01-0.02,0.02-0.04,0.02-0.06l0.38-0.86l0.21,0.09l-0.6,1.37
					l-0.21-0.09l-0.24-1.14c0-0.02-0.01-0.05-0.01-0.08c0-0.03-0.01-0.06-0.01-0.07l-0.01,0c-0.01,0.02-0.02,0.04-0.03,0.06
					c-0.01,0.02-0.02,0.04-0.03,0.06l-0.38,0.87L9.9,28.84z"/>
			</g>
			<g>
				<path class="st5" d="M12.1,29.71c-0.22-0.07-0.38-0.18-0.46-0.33c-0.09-0.16-0.09-0.36-0.02-0.62c0.05-0.17,0.12-0.3,0.21-0.39
					c0.09-0.09,0.19-0.15,0.32-0.17c0.12-0.02,0.26-0.01,0.42,0.03c0.09,0.03,0.17,0.06,0.25,0.11c0.07,0.04,0.13,0.1,0.18,0.16
					c0.05,0.06,0.08,0.13,0.09,0.2c0.01,0.07,0.01,0.15-0.02,0.24l-0.24-0.07c0.02-0.05,0.02-0.1,0.01-0.15
					c-0.01-0.05-0.03-0.09-0.06-0.13c-0.03-0.04-0.07-0.07-0.12-0.1c-0.05-0.03-0.1-0.05-0.15-0.06c-0.08-0.02-0.15-0.03-0.22-0.03
					c-0.07,0-0.13,0.02-0.18,0.05c-0.05,0.03-0.1,0.08-0.14,0.14s-0.07,0.13-0.1,0.22l-0.01,0.04c-0.04,0.12-0.05,0.23-0.04,0.31
					c0.01,0.09,0.05,0.16,0.11,0.21c0.06,0.06,0.14,0.1,0.24,0.13c0.1,0.03,0.18,0.04,0.25,0.03c0.07-0.01,0.13-0.04,0.19-0.08
					c0.05-0.04,0.09-0.11,0.11-0.19l0.01-0.02l-0.48-0.14l0.06-0.19l0.71,0.21l-0.22,0.76l-0.17-0.05l0.03-0.18
					c-0.05,0.03-0.11,0.06-0.17,0.07c-0.06,0.01-0.12,0.02-0.18,0.02C12.23,29.75,12.17,29.73,12.1,29.71z"/>
			</g>
			<g>
				<path class="st5" d="M13.07,29.95l0.81-1.38l0.3,0.05l0.34,1.57l-0.26-0.04l-0.07-0.36l-0.69-0.11l-0.18,0.32L13.07,29.95z
					 M13.61,29.48l0.54,0.09l-0.09-0.46c0-0.01-0.01-0.03-0.01-0.06c0-0.02-0.01-0.05-0.01-0.08c0-0.03-0.01-0.06-0.01-0.09
					C14,28.85,14,28.83,14,28.8l-0.01,0c-0.01,0.03-0.03,0.06-0.05,0.09c-0.02,0.04-0.04,0.07-0.05,0.1
					c-0.02,0.03-0.03,0.06-0.04,0.08L13.61,29.48z"/>
			</g>
			<g>
				<path class="st5" d="M16.9,30.24c-0.23,0.02-0.42-0.04-0.55-0.15c-0.13-0.12-0.21-0.31-0.23-0.57
					c-0.01-0.17,0.01-0.32,0.06-0.44c0.05-0.12,0.13-0.21,0.24-0.27s0.24-0.1,0.4-0.11c0.1-0.01,0.19,0,0.27,0.02
					c0.08,0.02,0.16,0.04,0.22,0.08s0.12,0.09,0.15,0.16c0.04,0.06,0.06,0.14,0.07,0.23l-0.25,0.02c0-0.06-0.02-0.1-0.04-0.14
					c-0.02-0.04-0.06-0.07-0.1-0.1c-0.04-0.03-0.09-0.04-0.14-0.05c-0.05-0.01-0.11-0.01-0.17-0.01c-0.08,0.01-0.15,0.02-0.22,0.05
					c-0.06,0.03-0.11,0.06-0.15,0.11c-0.04,0.05-0.07,0.11-0.09,0.18c-0.02,0.07-0.02,0.15-0.02,0.24l0,0.05
					c0.01,0.13,0.03,0.23,0.08,0.31c0.04,0.08,0.1,0.13,0.17,0.16c0.07,0.03,0.16,0.04,0.27,0.04c0.1-0.01,0.18-0.03,0.25-0.06
					c0.07-0.03,0.11-0.08,0.15-0.14c0.03-0.06,0.05-0.13,0.04-0.22l0-0.02l-0.5,0.03l-0.01-0.2l0.74-0.05l0.05,0.79l-0.17,0.01
					l-0.04-0.18c-0.04,0.05-0.08,0.09-0.13,0.13c-0.05,0.03-0.1,0.06-0.16,0.08C17.04,30.23,16.97,30.24,16.9,30.24z"/>
			</g>
			<g>
				<path class="st5" d="M17.89,30.14l0.29-1.58l0.3-0.06l0.85,1.36l-0.25,0.05l-0.19-0.32l-0.69,0.13l-0.06,0.37L17.89,30.14z
					 M18.24,29.51l0.53-0.1l-0.25-0.4c-0.01-0.01-0.02-0.03-0.03-0.05c-0.01-0.02-0.03-0.04-0.04-0.07
					c-0.01-0.03-0.03-0.05-0.04-0.08s-0.03-0.05-0.04-0.07l-0.01,0c0,0.03-0.01,0.06-0.01,0.1c-0.01,0.04-0.01,0.08-0.02,0.11
					c-0.01,0.04-0.01,0.07-0.01,0.09L18.24,29.51z"/>
			</g>
			<g>
				<path class="st5" d="M19.58,29.78l-0.4-1.44l0.23-0.06l0.4,1.44L19.58,29.78z"/>
			</g>
			<g>
				<path class="st5" d="M20.22,29.6l-0.52-1.4l0.74-0.27c0.08-0.03,0.15-0.04,0.22-0.03c0.07,0.01,0.13,0.03,0.18,0.07
					c0.05,0.04,0.09,0.09,0.12,0.16c0.02,0.05,0.03,0.11,0.02,0.16c0,0.05-0.02,0.1-0.04,0.14c-0.02,0.04-0.05,0.08-0.09,0.11
					l0,0.01c0.05-0.01,0.11,0,0.16,0.01s0.1,0.04,0.14,0.08c0.04,0.04,0.07,0.09,0.1,0.16c0.03,0.09,0.04,0.17,0.02,0.24
					c-0.02,0.07-0.05,0.13-0.11,0.18c-0.05,0.05-0.12,0.09-0.2,0.12L20.22,29.6z M20.15,28.7l0.46-0.17
					c0.04-0.02,0.08-0.04,0.1-0.07s0.04-0.06,0.05-0.1c0.01-0.04,0-0.07-0.01-0.11c-0.02-0.07-0.06-0.11-0.11-0.13
					c-0.05-0.02-0.1-0.02-0.16,0l-0.47,0.17L20.15,28.7z M20.38,29.32l0.49-0.18c0.06-0.02,0.11-0.06,0.13-0.11
					c0.03-0.05,0.03-0.11,0-0.18c-0.02-0.04-0.04-0.08-0.07-0.11c-0.03-0.03-0.06-0.04-0.1-0.05c-0.04,0-0.09,0-0.14,0.02
					l-0.47,0.18L20.38,29.32z"/>
			</g>
			<g>
				<path class="st5" d="M21.59,29.09l-0.16-1.6l0.27-0.14l1.2,1.07l-0.23,0.12l-0.27-0.25l-0.62,0.32l0.04,0.37L21.59,29.09z
					 M21.75,28.39l0.48-0.25l-0.35-0.32c-0.01-0.01-0.02-0.02-0.04-0.04c-0.02-0.02-0.04-0.04-0.06-0.06s-0.04-0.04-0.06-0.06
					c-0.02-0.02-0.04-0.04-0.06-0.06l-0.01,0.01c0,0.03,0.01,0.06,0.02,0.1c0.01,0.04,0.01,0.08,0.02,0.11
					c0.01,0.04,0.01,0.07,0.01,0.09L21.75,28.39z"/>
			</g>
			<g>
				<path class="st5" d="M23.15,28.26l-0.83-1.24l0.19-0.13l1.08,0.4c0.01,0,0.03,0.01,0.04,0.01c0.02,0.01,0.04,0.01,0.05,0.02
					c0.02,0.01,0.03,0.01,0.04,0.02l0.01-0.01c-0.01-0.02-0.02-0.04-0.04-0.05c-0.01-0.02-0.02-0.03-0.03-0.05l-0.52-0.78l0.19-0.13
					l0.83,1.24l-0.19,0.12l-1.09-0.41c-0.02-0.01-0.04-0.02-0.07-0.03c-0.03-0.01-0.05-0.02-0.07-0.03l-0.01,0.01
					c0.01,0.02,0.02,0.03,0.03,0.05c0.01,0.02,0.02,0.04,0.04,0.06l0.53,0.79L23.15,28.26z"/>
			</g>
			<g>
				<path class="st5" d="M24.54,27.3l-0.98-1.13L24,25.8c0.12-0.1,0.23-0.16,0.35-0.19c0.12-0.03,0.23-0.02,0.35,0.02
					c0.12,0.05,0.23,0.13,0.34,0.26c0.11,0.13,0.18,0.26,0.21,0.38s0.02,0.24-0.03,0.35c-0.05,0.11-0.13,0.22-0.24,0.31L24.54,27.3z
					 M24.59,26.99l0.25-0.21c0.06-0.05,0.1-0.1,0.13-0.16c0.03-0.05,0.05-0.11,0.05-0.17c0-0.06-0.01-0.12-0.03-0.18
					c-0.03-0.06-0.07-0.13-0.13-0.19l-0.03-0.03c-0.06-0.07-0.12-0.12-0.18-0.16c-0.06-0.04-0.12-0.06-0.17-0.06
					c-0.06-0.01-0.12,0-0.18,0.03c-0.06,0.02-0.12,0.06-0.17,0.11l-0.25,0.21L24.59,26.99z"/>
			</g>
			<g>
				<path class="st5" d="M25.8,26.19l-1.1-1.01L24.86,25l0.46,0.42l0.51-0.55l-0.46-0.42l0.16-0.18l1.1,1.01l-0.16,0.18l-0.49-0.45
					l-0.51,0.55l0.49,0.45L25.8,26.19z"/>
			</g>
			<g>
				<path class="st5" d="M26.82,25.05l-0.87-1.35l0.18-0.25l1.55,0.4l-0.15,0.21l-0.36-0.1l-0.41,0.57l0.2,0.31L26.82,25.05z
					 M26.64,24.36l0.32-0.44L26.5,23.8c-0.01,0-0.03-0.01-0.06-0.02c-0.02-0.01-0.05-0.01-0.08-0.02c-0.03-0.01-0.06-0.02-0.08-0.03
					c-0.03-0.01-0.05-0.02-0.08-0.03l-0.01,0.01c0.02,0.02,0.04,0.05,0.06,0.08s0.05,0.06,0.07,0.09c0.02,0.03,0.04,0.06,0.05,0.08
					L26.64,24.36z"/>
			</g>
		</g>
		<g>
			<g>
				<polygon class="st5" points="3.48,17.86 3.71,18.58 4.47,18.58 3.86,19.03 4.09,19.75 3.48,19.31 2.86,19.75 3.1,19.03 
					2.48,18.58 3.24,18.58 				"/>
			</g>
		</g>
		<g>
			<g>
				<polygon class="st5" points="28.45,17.86 28.69,18.58 29.45,18.58 28.83,19.03 29.07,19.75 28.45,19.31 27.84,19.75 
					28.07,19.03 27.46,18.58 28.22,18.58 				"/>
			</g>
		</g>
	</g>
</g>
</svg>
